<svg width="22" height="22" viewBox="0 0 22 22" fill="none" xmlns="http://www.w3.org/2000/svg">
<path d="M7.25 20H2V2.00001H9.5V5.00001C9.5 5.39784 9.65804 5.77937 9.93934 6.06067C10.2206 6.34198 10.6022 6.50001 11 6.50001H14V10.25C14 10.4489 14.079 10.6397 14.2197 10.7803C14.3603 10.921 14.5511 11 14.75 11C14.9489 11 15.1397 10.921 15.2803 10.7803C15.421 10.6397 15.5 10.4489 15.5 10.25V5.75001C15.5006 5.65131 15.4817 5.55346 15.4443 5.46208C15.407 5.3707 15.352 5.28759 15.2825 5.21751L10.7825 0.717513C10.7124 0.648001 10.6293 0.593008 10.5379 0.555684C10.4466 0.518361 10.3487 0.499442 10.25 0.500013H2C1.60218 0.500013 1.22064 0.658048 0.93934 0.939352C0.658035 1.22066 0.5 1.60219 0.5 2.00001V20C0.5 20.3978 0.658035 20.7794 0.93934 21.0607C1.22064 21.342 1.60218 21.5 2 21.5H7.25C7.44891 21.5 7.63968 21.421 7.78033 21.2803C7.92098 21.1397 8 20.9489 8 20.75C8 20.5511 7.92098 20.3603 7.78033 20.2197C7.63968 20.079 7.44891 20 7.25 20ZM11 3.05751L12.9425 5.00001H11V3.05751Z" fill="#1CA74E"/>
<path d="M4.25 9.5H8C8.19891 9.5 8.38968 9.42098 8.53033 9.28033C8.67098 9.13968 8.75 8.94891 8.75 8.75C8.75 8.55109 8.67098 8.36032 8.53033 8.21967C8.38968 8.07902 8.19891 8 8 8H4.25C4.05109 8 3.86032 8.07902 3.71967 8.21967C3.57902 8.36032 3.5 8.55109 3.5 8.75C3.5 8.94891 3.57902 9.13968 3.71967 9.28033C3.86032 9.42098 4.05109 9.5 4.25 9.5Z" fill="#1CA74E"/>
<path d="M12.5 11.75C12.5 11.5511 12.421 11.3603 12.2803 11.2197C12.1397 11.079 11.9489 11 11.75 11H4.25C4.05109 11 3.86032 11.079 3.71967 11.2197C3.57902 11.3603 3.5 11.5511 3.5 11.75C3.5 11.9489 3.57902 12.1397 3.71967 12.2803C3.86032 12.421 4.05109 12.5 4.25 12.5H11.75C11.9489 12.5 12.1397 12.421 12.2803 12.2803C12.421 12.1397 12.5 11.9489 12.5 11.75Z" fill="#1CA74E"/>
<path d="M4.25 14C4.05109 14 3.86032 14.079 3.71967 14.2197C3.57902 14.3603 3.5 14.5511 3.5 14.75C3.5 14.9489 3.57902 15.1397 3.71967 15.2803C3.86032 15.421 4.05109 15.5 4.25 15.5H10.25C10.4489 15.5 10.6397 15.421 10.7803 15.2803C10.921 15.1397 11 14.9489 11 14.75C11 14.5511 10.921 14.3603 10.7803 14.2197C10.6397 14.079 10.4489 14 10.25 14H4.25Z" fill="#1CA74E"/>
<path d="M19.2495 9.5H19.122C18.5254 9.50053 17.9535 9.73792 17.532 10.16L10.617 17.075C10.4359 17.2628 10.3089 17.496 10.2495 17.75L9.49947 20.57C9.46772 20.6955 9.46899 20.8271 9.50317 20.9519C9.53734 21.0768 9.60324 21.1907 9.69447 21.2825C9.78988 21.3802 9.91016 21.45 10.0423 21.4844C10.1745 21.5187 10.3135 21.5164 10.4445 21.4775L13.2495 20.75C13.5148 20.6859 13.7566 20.5481 13.947 20.3525L20.862 13.4375C21.2685 13.0197 21.4971 12.4605 21.4995 11.8775V11.75C21.4995 11.1533 21.2624 10.581 20.8405 10.159C20.4185 9.73705 19.8462 9.5 19.2495 9.5ZM14.3745 17.8175L13.182 16.625L17.3745 12.4325L18.567 13.625L14.3745 17.8175ZM12.8745 19.3175L11.2845 19.715L11.682 18.125L12.132 17.675L13.3245 18.8675L12.8745 19.3175ZM19.9995 11.8775C20 11.9762 19.9811 12.0741 19.9438 12.1654C19.9065 12.2568 19.8515 12.3399 19.782 12.41L19.6245 12.5675L18.432 11.375L18.5895 11.2175C18.6595 11.148 18.7427 11.093 18.834 11.0557C18.9254 11.0183 19.0233 10.9994 19.122 11H19.2495C19.4484 11 19.6391 11.079 19.7798 11.2197C19.9205 11.3603 19.9995 11.5511 19.9995 11.75V11.8775Z" fill="#1CA74E"/>
</svg>
