<svg width="24" height="25" viewBox="0 0 24 25" fill="none" xmlns="http://www.w3.org/2000/svg">
<path fill-rule="evenodd" clip-rule="evenodd" d="M5.37868 2.87868C5.94129 2.31607 6.70435 2 7.5 2H16.5C17.2956 2 18.0587 2.31607 18.6213 2.87868C19.1839 3.44129 19.5 4.20435 19.5 5V22.25C19.5 22.5453 19.3267 22.8132 19.0572 22.9342C18.7878 23.0552 18.4725 23.0068 18.2517 22.8106L12 17.2535L5.74827 22.8106C5.52753 23.0068 5.21218 23.0552 4.94276 22.9342C4.67333 22.8132 4.5 22.5453 4.5 22.25V5C4.5 4.20435 4.81607 3.44129 5.37868 2.87868ZM7.5 3.5C7.10218 3.5 6.72064 3.65804 6.43934 3.93934C6.15804 4.22064 6 4.60218 6 5V20.5799L11.5017 15.6894C11.7859 15.4369 12.2141 15.4369 12.4983 15.6894L18 20.5799V5C18 4.60218 17.842 4.22064 17.5607 3.93934C17.2794 3.65804 16.8978 3.5 16.5 3.5H7.5Z" fill="#1CA74E"/>
</svg>
