<svg width="20" height="21" viewBox="0 0 20 21" fill="none" xmlns="http://www.w3.org/2000/svg">
<path d="M4.16732 2.16602H15.834C16.497 2.16602 17.1329 2.42941 17.6018 2.89825C18.0706 3.36709 18.334 4.00297 18.334 4.66602V12.9993C18.334 13.6624 18.0706 14.2983 17.6018 14.7671C17.1329 15.236 16.497 15.4993 15.834 15.4993H6.17565L3.09232 18.591C3.01445 18.6682 2.9221 18.7294 2.82057 18.7708C2.71904 18.8123 2.61032 18.8333 2.50065 18.8327C2.39134 18.8355 2.28288 18.8127 2.18398 18.766C2.0318 18.7035 1.90153 18.5973 1.80958 18.4609C1.71764 18.3245 1.66814 18.1639 1.66732 17.9993V4.66602C1.66732 4.00297 1.93071 3.36709 2.39955 2.89825C2.86839 2.42941 3.50428 2.16602 4.16732 2.16602ZM3.33398 15.991L5.24232 14.0743C5.32018 13.9971 5.41253 13.936 5.51406 13.8945C5.61559 13.8531 5.72431 13.832 5.83398 13.8327H15.834C16.055 13.8327 16.267 13.7449 16.4232 13.5886C16.5795 13.4323 16.6673 13.2204 16.6673 12.9993V4.66602C16.6673 4.445 16.5795 4.23304 16.4232 4.07676C16.267 3.92048 16.055 3.83268 15.834 3.83268H4.16732C3.9463 3.83268 3.73434 3.92048 3.57806 4.07676C3.42178 4.23304 3.33398 4.445 3.33398 4.66602V15.991Z" fill="#747474"/>
</svg>
