<svg width="24" height="25" viewBox="0 0 24 25" fill="none" xmlns="http://www.w3.org/2000/svg">
<g clip-path="url(#clip0_3101_785)">
<path d="M1.83984 0.5V24.5H16.5779L22.159 18.919V0.5H1.83984ZM16.9951 22.0693V19.3361H19.7283L16.9951 22.0693ZM20.7352 17.9124H15.5714V23.0763H3.26358V1.92373H20.7352V17.9124Z" fill="#1CA74E"/>
<path d="M14.2293 7.68472C14.5072 7.26364 14.6695 6.75988 14.6695 6.21871C14.6695 4.74683 13.472 3.54932 12.0001 3.54932C10.5282 3.54932 9.33072 4.74683 9.33072 6.21871C9.33072 6.75988 9.493 7.26364 9.77087 7.68472C8.59577 8.14827 7.76172 9.29422 7.76172 10.632V13.2118H16.2385V10.632H16.2385C16.2385 9.29422 15.4045 8.14827 14.2293 7.68472ZM12.0001 4.973C12.687 4.973 13.2458 5.5318 13.2458 6.21866C13.2458 6.90552 12.687 7.46432 12.0001 7.46432C11.3132 7.46432 10.7545 6.90552 10.7545 6.21866C10.7545 5.53185 11.3133 4.973 12.0001 4.973ZM14.8148 11.788H9.1855V10.632C9.1855 9.67035 9.9678 8.88805 10.9294 8.88805H13.0709C14.0325 8.88805 14.8148 9.67039 14.8148 10.632V11.788Z" fill="#1CA74E"/>
<path d="M16.2843 14.9062H7.84961V16.33H16.2843V14.9062Z" fill="#1CA74E"/>
<path d="M13.8501 17.9121H7.84961V19.3358H13.8501V17.9121Z" fill="#1CA74E"/>
</g>
<defs>
<clipPath id="clip0_3101_785">
<rect width="24" height="24" fill="white" transform="translate(0 0.5)"/>
</clipPath>
</defs>
</svg>
