<svg width="24" height="25" viewBox="0 0 24 25" fill="none" xmlns="http://www.w3.org/2000/svg">
<path d="M23.0753 4.1916L20.8251 1.94159C20.6058 1.72213 20.2498 1.72185 20.0302 1.94132C20.0302 1.94146 20.0301 1.94159 20.0298 1.94159L13.2799 8.69173C13.1744 8.79713 13.1152 8.9401 13.1152 9.08926V11.3394C13.1152 11.65 13.367 11.9018 13.6776 11.9018H15.9277C16.0769 11.9018 16.2199 11.8426 16.3253 11.7371L23.0753 4.98705C23.2949 4.76758 23.295 4.41161 23.0757 4.19201C23.0755 4.19201 23.0755 4.19173 23.0753 4.1916ZM15.6948 10.7769H14.2401V9.32235L20.4276 3.13484L21.8821 4.58939L15.6948 10.7769Z" fill="#1CA74E"/>
<path d="M21.5526 8.52721C21.242 8.52721 20.9902 8.77901 20.9902 9.08957V16.9646C20.9893 17.8961 20.2343 18.6511 19.3027 18.6522H13.6777C13.556 18.6519 13.4375 18.6914 13.3402 18.7646L9.74024 21.4647V19.2147C9.74024 18.904 9.48843 18.6522 9.17774 18.6522H3.55274C2.6212 18.6511 1.8662 17.8961 1.86537 16.9647V6.83957C1.86634 5.90817 2.6212 5.15317 3.55274 5.15221H13.6777C13.9884 5.15221 14.2402 4.9004 14.2402 4.58971C14.2402 4.27915 13.9884 4.02734 13.6777 4.02734H3.55274C2.00008 4.02886 0.741748 5.28719 0.740234 6.83957V16.9647C0.741748 18.5172 2.00008 19.7756 3.55274 19.7772H8.61524V22.5897C8.61524 22.9003 8.86704 23.1521 9.17774 23.1521C9.29951 23.1521 9.41785 23.1126 9.51526 23.0397L13.8658 19.7771H19.3027C20.8554 19.7756 22.1136 18.5172 22.1152 16.9646V9.08971C22.1152 8.77901 21.8633 8.52721 21.5526 8.52721Z" fill="#1CA74E"/>
<path d="M10.3026 7.40186H4.67787C4.36704 7.40186 4.11523 7.65366 4.11523 7.96436C4.11523 8.27491 4.36704 8.52672 4.67787 8.52672H10.3026C10.6133 8.52672 10.8652 8.27491 10.8652 7.96436C10.8652 7.65366 10.6133 7.40186 10.3026 7.40186Z" fill="#1CA74E"/>
<path d="M4.67787 11.9019H10.3026C10.6133 11.9019 10.8652 11.6499 10.8652 11.3394C10.8652 11.0287 10.6133 10.7769 10.3026 10.7769H4.67787C4.36704 10.7769 4.11523 11.0287 4.11523 11.3394C4.11523 11.6499 4.36704 11.9019 4.67787 11.9019Z" fill="#1CA74E"/>
<path d="M4.67787 15.2767H18.1777C18.4884 15.2767 18.7401 15.0249 18.7401 14.7142C18.7401 14.4037 18.4883 14.1519 18.1777 14.1519H4.67787C4.36704 14.1519 4.11523 14.4037 4.11523 14.7142C4.11523 15.0249 4.36704 15.2767 4.67787 15.2767Z" fill="#1CA74E"/>
</svg>
