<svg width="20" height="21" viewBox="0 0 20 21" fill="none" xmlns="http://www.w3.org/2000/svg">
<path d="M17.7493 8.89939C17.5152 8.61826 17.2222 8.39195 16.891 8.23644C16.5598 8.08094 16.1986 8.00001 15.8327 7.99939H12.0327L12.4993 6.80772C12.6935 6.28595 12.7581 5.72489 12.6877 5.17265C12.6174 4.62042 12.4141 4.09349 12.0953 3.63708C11.7766 3.18066 11.3519 2.80838 10.8576 2.55217C10.3634 2.29596 9.81438 2.16347 9.25768 2.16605C9.09738 2.16639 8.94058 2.21295 8.80607 2.30016C8.67157 2.38736 8.56507 2.51151 8.49935 2.65772L6.12435 7.99939H4.16602C3.50297 7.99939 2.86709 8.26278 2.39825 8.73162C1.92941 9.20046 1.66602 9.83634 1.66602 10.4994V16.3327C1.66602 16.9958 1.92941 17.6316 2.39825 18.1005C2.86709 18.5693 3.50297 18.8327 4.16602 18.8327H14.7743C15.3592 18.8325 15.9255 18.6273 16.3746 18.2527C16.8238 17.8782 17.1274 17.358 17.2327 16.7827L18.291 10.9494C18.3565 10.5889 18.3419 10.2184 18.2483 9.86412C18.1547 9.50986 17.9843 9.18051 17.7493 8.89939ZM5.83268 17.1661H4.16602C3.945 17.1661 3.73304 17.0783 3.57676 16.922C3.42048 16.7657 3.33268 16.5537 3.33268 16.3327V10.4994C3.33268 10.2784 3.42048 10.0664 3.57676 9.91013C3.73304 9.75385 3.945 9.66605 4.16602 9.66605H5.83268V17.1661ZM16.666 10.6494L15.6077 16.4827C15.5722 16.6769 15.4689 16.8521 15.3163 16.9772C15.1637 17.1024 14.9717 17.1693 14.7743 17.1661H7.49935V9.00772L9.76602 3.90772C9.99934 3.97574 10.216 4.09139 10.4024 4.24737C10.5888 4.40335 10.7408 4.59628 10.8488 4.81396C10.9569 5.03165 11.0187 5.26938 11.0302 5.51214C11.0418 5.75489 11.0029 5.99741 10.916 6.22439L10.4743 7.41605C10.3802 7.66793 10.3485 7.93884 10.3817 8.20566C10.415 8.47248 10.5124 8.72729 10.6655 8.94834C10.8186 9.16938 11.0229 9.35011 11.2609 9.47509C11.499 9.60006 11.7638 9.66558 12.0327 9.66605H15.8327C15.9551 9.66585 16.0761 9.69263 16.187 9.74448C16.2979 9.79633 16.396 9.87198 16.4743 9.96605C16.5546 10.0588 16.6134 10.1682 16.6466 10.2863C16.6797 10.4044 16.6863 10.5284 16.666 10.6494Z" fill="#747474"/>
</svg>
