<svg width="56" height="56" viewBox="0 0 56 56" fill="none" xmlns="http://www.w3.org/2000/svg">
<g clip-path="url(#clip0_1609_6189)">
<path d="M4.11328 54.1417V8.56944C4.11328 7.54306 4.9453 6.71094 5.97178 6.71094H43.5456C44.572 6.71094 45.4041 7.54295 45.4041 8.56944V54.1417C45.4041 55.1681 44.5721 56.0002 43.5456 56.0002H5.97167C4.9453 56.0002 4.11328 55.1682 4.11328 54.1417Z" fill="#1CA74E"/>
<path d="M43.5455 6.71094H41.3839V54.1417C41.3839 55.1681 40.5519 56.0002 39.5254 56.0002H43.5455C44.5718 56.0002 45.404 55.1682 45.404 54.1417V8.56944C45.404 7.54295 44.5718 6.71094 43.5455 6.71094Z" fill="#1CA74E"/>
<path d="M8.13477 6.71094V50.2183C8.13477 50.8954 8.68361 51.4442 9.36064 51.4442H40.1533C40.8303 51.4442 41.3792 50.8954 41.3792 50.2183V6.71094H8.13477Z" fill="#F7F0F0"/>
<path d="M28.439 2.66525C28.439 1.19328 27.2457 0 25.7737 0H23.7413C22.2693 0 21.076 1.19328 21.076 2.66525C21.076 3.41195 20.4707 4.01734 19.724 4.01734H18.0978C16.6103 4.01734 15.4043 5.2232 15.4043 6.71081V8.1258C15.4043 8.83192 15.9767 9.40428 16.6828 9.40428H32.8322C33.5383 9.40428 34.1107 8.83192 34.1107 8.1258V6.71081C34.1107 5.22331 32.9048 4.01734 31.4172 4.01734H29.791C29.0442 4.01734 28.439 3.41195 28.439 2.66525Z" fill="#F15C5F"/>
<path d="M31.4175 4.01734H29.7913C29.0446 4.01734 28.4392 3.41195 28.4392 2.66525C28.4392 1.19328 27.2459 0 25.7739 0H24.3984V4.07356C24.3984 4.82027 25.0038 5.42566 25.7505 5.42566H27.3767C28.8642 5.42566 30.0702 6.63152 30.0702 8.11913V9.40428H32.8323C33.5385 9.40428 34.1108 8.83192 34.1108 8.1258V6.71081C34.1109 5.2232 32.9051 4.01734 31.4175 4.01734Z" fill="#F15C5F"/>
<path d="M14.7865 20.2013L12.934 18.5547C12.5852 18.2446 12.5538 17.7105 12.8639 17.3617C13.1738 17.0129 13.708 16.9813 14.0568 17.2915L15.7975 18.8387L18.4831 14.9977C18.7504 14.6151 19.2775 14.5218 19.6599 14.7894C20.0424 15.0569 20.1357 15.5838 19.8683 15.9663L17.0969 19.9299C16.5649 20.6905 15.4847 20.8221 14.7865 20.2013Z" fill="#69C78B"/>
<path d="M14.7867 32.5472L12.934 30.9003C12.5852 30.5902 12.5538 30.0562 12.8639 29.7074C13.1738 29.3586 13.708 29.3269 14.0569 29.6371L15.7975 31.1845L18.4831 27.3433C18.7504 26.9607 19.2775 26.8676 19.6599 27.1351C20.0424 27.4025 20.1357 27.9294 19.8683 28.312L17.0969 32.2757C16.5649 33.0365 15.4849 33.1677 14.7867 32.5472Z" fill="#69C78B"/>
<path d="M14.7865 44.7247L12.934 43.0781C12.5852 42.768 12.5538 42.2339 12.8639 41.8851C13.1738 41.5363 13.708 41.5047 14.0568 41.8149L15.7975 43.3621L18.4831 39.5211C18.7504 39.1385 19.2775 39.0453 19.6599 39.3128C20.0424 39.5802 20.1357 40.1072 19.8683 40.4897L17.0969 44.4533C16.5649 45.2138 15.4847 45.3454 14.7865 44.7247Z" fill="#69C78B"/>
<path d="M36.0201 16.7721H24.0775C23.6107 16.7721 23.2324 16.3938 23.2324 15.9271C23.2324 15.4602 23.6107 15.082 24.0775 15.082H36.0201C36.4869 15.082 36.8651 15.4604 36.8651 15.9271C36.8651 16.3938 36.4869 16.7721 36.0201 16.7721Z" fill="#5D5D5D"/>
<path d="M36.0201 20.528H24.0775C23.6107 20.528 23.2324 20.1496 23.2324 19.6829C23.2324 19.2161 23.6107 18.8379 24.0775 18.8379H36.0201C36.4869 18.8379 36.8651 19.2162 36.8651 19.6829C36.8651 20.1496 36.4869 20.528 36.0201 20.528Z" fill="#5D5D5D"/>
<path d="M36.0201 28.8463H24.0775C23.6107 28.8463 23.2324 28.468 23.2324 28.0013C23.2324 27.5346 23.6107 27.1562 24.0775 27.1562H36.0201C36.4869 27.1562 36.8651 27.5346 36.8651 28.0013C36.8651 28.468 36.4869 28.8463 36.0201 28.8463Z" fill="#5D5D5D"/>
<path d="M30.0488 32.6022H24.0775C23.6107 32.6022 23.2324 32.2238 23.2324 31.7571C23.2324 31.2903 23.6107 30.9121 24.0775 30.9121H30.0488C30.5156 30.9121 30.8938 31.2904 30.8938 31.7571C30.8939 32.224 30.5156 32.6022 30.0488 32.6022Z" fill="#5D5D5D"/>
<path d="M48.5744 23.4426L45.2928 20.8125L44.1624 21.4236L24.9899 45.345L21.9422 51.465C21.6946 51.9621 21.8271 52.5646 22.2606 52.912C22.6939 53.2594 23.3109 53.2575 23.7422 52.9076L29.0517 48.6003L48.224 24.679L48.5744 23.4426Z" fill="#F15C5F"/>
<path d="M25.0172 45.3125L21.9526 51.4664C21.7037 51.9663 21.837 52.5722 22.2728 52.9214C22.7085 53.2706 23.3289 53.2689 23.7626 52.917L29.1015 48.5859L25.0172 45.3125Z" fill="#5D5D5D"/>
<path d="M50.9117 17.1637C49.7901 16.2647 48.1522 16.4452 47.2533 17.5668L44.1621 21.4236L48.2238 24.679L51.3149 20.8222C52.2139 19.7006 52.0333 18.0626 50.9117 17.1637Z" fill="#F9CDCE"/>
</g>
<defs>
<clipPath id="clip0_1609_6189">
<rect width="56" height="56" fill="white"/>
</clipPath>
</defs>
</svg>
