<svg width="24" height="25" viewBox="0 0 24 25" fill="none" xmlns="http://www.w3.org/2000/svg">
<path d="M20.71 17.21L18.29 14.79C18.197 14.6963 18.0864 14.6219 17.9646 14.5711C17.8427 14.5203 17.712 14.4942 17.58 14.4942C17.448 14.4942 17.3173 14.5203 17.1954 14.5711C17.0736 14.6219 16.963 14.6963 16.87 14.79L13.29 18.37C13.1973 18.4634 13.124 18.5743 13.0742 18.6961C13.0245 18.8179 12.9992 18.9484 13 19.08V21.5C13 21.7652 13.1054 22.0196 13.2929 22.2071C13.4804 22.3946 13.7348 22.5 14 22.5H16.42C16.5516 22.5008 16.6821 22.4755 16.8039 22.4258C16.9257 22.376 17.0366 22.3027 17.13 22.21L20.71 18.63C20.8037 18.537 20.8781 18.4264 20.9289 18.3046C20.9797 18.1827 21.0058 18.052 21.0058 17.92C21.0058 17.788 20.9797 17.6573 20.9289 17.5354C20.8781 17.4136 20.8037 17.303 20.71 17.21ZM16 20.5H15V19.5L17.58 16.92L18.58 17.92L16 20.5ZM10 20.5H6C5.73478 20.5 5.48043 20.3946 5.29289 20.2071C5.10536 20.0196 5 19.7652 5 19.5V5.5C5 5.23478 5.10536 4.98043 5.29289 4.79289C5.48043 4.60536 5.73478 4.5 6 4.5H11V7.5C11 8.29565 11.3161 9.05871 11.8787 9.62132C12.4413 10.1839 13.2044 10.5 14 10.5H17V11.5C17 11.7652 17.1054 12.0196 17.2929 12.2071C17.4804 12.3946 17.7348 12.5 18 12.5C18.2652 12.5 18.5196 12.3946 18.7071 12.2071C18.8946 12.0196 19 11.7652 19 11.5V9.5C19 9.5 19 9.5 19 9.44C18.9896 9.34813 18.9695 9.25763 18.94 9.17V9.08C18.8919 8.97718 18.8278 8.88267 18.75 8.8L12.75 2.8C12.6673 2.72222 12.5728 2.65808 12.47 2.61C12.4402 2.60576 12.4099 2.60576 12.38 2.61L12.06 2.5H6C5.20435 2.5 4.44129 2.81607 3.87868 3.37868C3.31607 3.94129 3 4.70435 3 5.5V19.5C3 20.2956 3.31607 21.0587 3.87868 21.6213C4.44129 22.1839 5.20435 22.5 6 22.5H10C10.2652 22.5 10.5196 22.3946 10.7071 22.2071C10.8946 22.0196 11 21.7652 11 21.5C11 21.2348 10.8946 20.9804 10.7071 20.7929C10.5196 20.6054 10.2652 20.5 10 20.5ZM13 5.91L15.59 8.5H14C13.7348 8.5 13.4804 8.39464 13.2929 8.20711C13.1054 8.01957 13 7.76522 13 7.5V5.91ZM8 14.5H14C14.2652 14.5 14.5196 14.3946 14.7071 14.2071C14.8946 14.0196 15 13.7652 15 13.5C15 13.2348 14.8946 12.9804 14.7071 12.7929C14.5196 12.6054 14.2652 12.5 14 12.5H8C7.73478 12.5 7.48043 12.6054 7.29289 12.7929C7.10536 12.9804 7 13.2348 7 13.5C7 13.7652 7.10536 14.0196 7.29289 14.2071C7.48043 14.3946 7.73478 14.5 8 14.5ZM8 10.5H9C9.26522 10.5 9.51957 10.3946 9.70711 10.2071C9.89464 10.0196 10 9.76522 10 9.5C10 9.23478 9.89464 8.98043 9.70711 8.79289C9.51957 8.60536 9.26522 8.5 9 8.5H8C7.73478 8.5 7.48043 8.60536 7.29289 8.79289C7.10536 8.98043 7 9.23478 7 9.5C7 9.76522 7.10536 10.0196 7.29289 10.2071C7.48043 10.3946 7.73478 10.5 8 10.5ZM10 16.5H8C7.73478 16.5 7.48043 16.6054 7.29289 16.7929C7.10536 16.9804 7 17.2348 7 17.5C7 17.7652 7.10536 18.0196 7.29289 18.2071C7.48043 18.3946 7.73478 18.5 8 18.5H10C10.2652 18.5 10.5196 18.3946 10.7071 18.2071C10.8946 18.0196 11 17.7652 11 17.5C11 17.2348 10.8946 16.9804 10.7071 16.7929C10.5196 16.6054 10.2652 16.5 10 16.5Z" fill="#1CA74E"/>
</svg>
