<svg width="41" height="40" viewBox="0 0 41 40" fill="none" xmlns="http://www.w3.org/2000/svg">
<path d="M32.6152 28.5956C32.5777 28.2812 32.3108 28.045 31.9945 28.045H30.9008V18.8919C30.9008 18.8906 30.9008 18.8887 30.9008 18.8875C30.9008 17.0875 30.0633 15.4437 28.7008 14.3875V17.6375C28.7008 19.5687 27.132 21.1375 25.2008 21.1375C23.2758 21.1375 21.7008 19.5687 21.7008 17.6375V14.3875C20.3483 15.4469 19.5127 17.0844 19.5077 18.8719C19.5077 18.8762 19.5052 18.88 19.5052 18.885V25.5756C18.4602 24.27 16.8558 23.4312 15.057 23.4312C13.2589 23.4312 11.6552 24.27 10.6102 25.5744V9.56375H22.9539V17.6375C22.9539 18.8775 23.9627 19.8869 25.2033 19.8869C26.4439 19.8869 27.4527 18.8781 27.4527 17.6375V9.56375H29.3077C29.6514 9.56375 29.9327 9.2825 29.9327 8.93875V5.5575C29.9327 5.2075 29.6514 4.9325 29.3077 4.9325H8.36328C8.01328 4.9325 7.73828 5.2075 7.73828 5.5575V8.93875C7.73828 9.2825 8.01328 9.56375 8.36328 9.56375H9.36016V29.0719C9.36016 29.0919 9.35703 29.1112 9.35703 29.1312C9.35703 32.2687 11.9133 34.825 15.057 34.825C18.2008 34.825 20.757 32.2687 20.757 29.1312C20.757 29.12 20.7552 29.1087 20.7552 29.0975V22.4381C21.8002 23.7462 23.4058 24.5875 25.207 24.5875C27.0033 24.5875 28.6058 23.7475 29.6508 22.4419V28.045H28.5564C28.2402 28.045 27.9733 28.2819 27.9358 28.5956L27.542 31.8937C27.4977 32.2656 27.7883 32.5931 28.1627 32.5931H32.3883C32.7627 32.5931 33.0533 32.2662 33.0089 31.8937L32.6152 28.5956ZM15.057 31.3937C13.807 31.3937 12.7945 30.3812 12.7945 29.1312C12.7945 27.8812 13.807 26.8625 15.057 26.8625C16.307 26.8625 17.3258 27.8812 17.3258 29.1312C17.3258 30.3812 16.307 31.3937 15.057 31.3937Z" fill="#56BF7C"/>
</svg>
