<svg width="72" height="72" viewBox="0 0 72 72" fill="none" xmlns="http://www.w3.org/2000/svg">
<path d="M32.3996 31.2002H65.9996C68.6504 31.2002 70.7996 33.3494 70.7996 36.0002V60.0014C70.7996 62.6522 68.6504 64.8014 65.9996 64.8014H63.5996L62.8796 69.2054C62.6516 70.5734 61.1156 71.2454 59.9756 70.4774L51.5996 64.8014H32.3996C29.7488 64.8014 27.5996 62.6522 27.5996 60.0014V36.0002C27.5996 33.3494 29.7488 31.2002 32.3996 31.2002Z" fill="#A3DFB9"/>
<path d="M44.3992 6.0002V30.0014C44.3992 32.6534 42.2512 34.8014 39.5992 34.8014H20.3992L12.0232 40.4774C10.8832 41.2454 9.34722 40.5734 9.11922 39.2054L8.39922 34.8014H5.99922C3.34722 34.8014 1.19922 32.6534 1.19922 30.0014V6.0002C1.19922 3.3482 3.34722 1.2002 5.99922 1.2002H39.5992C42.2512 1.2002 44.3992 3.3482 44.3992 6.0002Z" fill="#FFF986"/>
<path d="M22.7996 8.3999C18.8288 8.3999 15.5996 11.6291 15.5996 15.5999V20.3999C15.5996 24.3707 18.8288 27.5999 22.7996 27.5999C24.3524 27.5999 25.7876 27.1007 26.9648 26.2619L27.9512 27.2483C28.1852 27.4823 28.4924 27.5999 28.7996 27.5999C29.1068 27.5999 29.414 27.4823 29.648 27.2483C30.1172 26.7791 30.1172 26.0207 29.648 25.5515L28.6616 24.5651C29.5004 23.3879 29.9996 21.9527 29.9996 20.3999V15.5999C29.9996 11.6291 26.7704 8.3999 22.7996 8.3999ZM24.848 20.7515C24.3788 20.2823 23.6204 20.2823 23.1512 20.7515C22.682 21.2207 22.682 21.9791 23.1512 22.4483L25.2224 24.5195C24.5084 24.9407 23.6864 25.1999 22.7996 25.1999C20.1524 25.1999 17.9996 23.0471 17.9996 20.3999V15.5999C17.9996 12.9527 20.1524 10.7999 22.7996 10.7999C25.4468 10.7999 27.5996 12.9527 27.5996 15.5999V20.3999C27.5996 21.2879 27.3416 22.1087 26.9192 22.8227L24.848 20.7515Z" fill="#2E2E2E"/>
<path d="M56.3293 55.9967L50.3293 39.1967C50.1589 38.7191 49.7065 38.3999 49.2001 38.3999C48.6937 38.3999 48.2401 38.7191 48.0709 39.1967L42.0709 55.9967C41.8465 56.6207 42.1729 57.3071 42.7969 57.5291C43.4173 57.7535 44.1073 57.4259 44.3293 56.8031L46.6165 50.3999H51.7825L54.0697 56.8031C54.2449 57.2939 54.7057 57.5999 55.1989 57.5999C55.3321 57.5999 55.4701 57.5771 55.6021 57.5291C56.2273 57.3059 56.5525 56.6195 56.3281 55.9967H56.3293ZM47.4733 47.9999L49.1989 43.1687L50.9245 47.9999H47.4733Z" fill="#2E2E2E"/>
</svg>
