<svg width="24" height="24" viewBox="0 0 24 24" fill="none" xmlns="http://www.w3.org/2000/svg">
<g clip-path="url(#clip0_2988_5340)">
<path d="M20.4642 10.9745V4.9215C20.4642 3.48289 19.2861 2.29467 17.8474 2.29467H17.5215V1.88435C17.5215 0.857919 16.6894 0.0258129 15.663 0.0258129C14.6365 0.0258129 13.8044 0.857919 13.8044 1.88435V2.29467H6.98982V1.88435C6.98982 0.84367 6.14615 0 5.10547 0C4.0648 0 3.22113 0.84367 3.22113 1.88435V2.29467H2.93951C1.50085 2.29467 0.330078 3.48289 0.330078 4.9215V18.8204C0.330078 20.2591 1.50085 21.4479 2.93951 21.4479H11.1271C12.4769 23.0625 14.4722 23.9969 16.5767 24C20.4848 24 23.6683 20.8159 23.6683 16.9077C23.6684 14.4306 22.3743 12.2421 20.4642 10.9745ZM14.837 1.88435C14.829 1.43468 15.187 1.0637 15.6367 1.05575C15.6439 1.05565 15.6511 1.05559 15.6584 1.05565C16.1123 1.05085 16.4842 1.41491 16.489 1.86886C16.489 1.87402 16.489 1.87918 16.489 1.88435V3.89507H14.837V1.88435ZM4.25365 1.88435C4.25855 1.42173 4.63759 1.05069 5.10021 1.05559C5.10103 1.05559 5.10181 1.05559 5.10258 1.05565C5.56691 1.05565 5.9573 1.42007 5.9573 1.88435V3.89507H4.25365V1.88435ZM1.3626 4.9215C1.3626 4.05217 2.07018 3.32719 2.93951 3.32719H3.22113V4.43281C3.22113 4.71788 3.45923 4.92759 3.74436 4.92759H6.46091C6.74599 4.92759 6.98982 4.71788 6.98982 4.43281V3.32719H13.8044V4.43281C13.7968 4.69842 14.0059 4.91995 14.2715 4.92759C14.281 4.92785 14.2905 4.92785 14.3 4.92759H17.0166C17.2863 4.93657 17.5123 4.72516 17.5213 4.45542C17.5216 4.44788 17.5216 4.44034 17.5215 4.43281V3.32719H17.8474C18.7226 3.33601 19.4284 4.04628 19.4317 4.9215V6.57962H1.3626V4.9215ZM2.93951 20.4154C2.07018 20.4154 1.3626 19.6898 1.3626 18.8204V7.61213H19.4317V10.413C18.533 10.0185 17.5621 9.81496 16.5807 9.81532C12.6726 9.81532 9.49104 13.0041 9.49104 16.9123C9.48908 18.1401 9.80642 19.3473 10.412 20.4154H2.93951ZM16.5767 22.9583C13.2325 22.9583 10.5215 20.2473 10.5215 16.903C10.5215 13.5588 13.2325 10.8478 16.5767 10.8478C19.921 10.8478 22.632 13.5588 22.632 16.903V16.9031C22.6282 20.2457 19.9194 22.9545 16.5767 22.9583Z" fill="#A2A2A2"/>
<path d="M19.0091 16.9048H16.7474V13.7985C16.7474 13.5134 16.5162 13.2822 16.2311 13.2822C15.946 13.2822 15.7148 13.5134 15.7148 13.7985V17.4206C15.7194 17.7076 15.9537 17.9378 16.2408 17.9373H19.0091C19.2942 17.9373 19.5254 17.7062 19.5254 17.4211C19.5254 17.1359 19.2942 16.9048 19.0091 16.9048Z" fill="#A2A2A2"/>
</g>
<defs>
<clipPath id="clip0_2988_5340">
<rect width="24" height="24" fill="white"/>
</clipPath>
</defs>
</svg>
