<svg width="375" height="316" viewBox="0 0 375 316" fill="none" xmlns="http://www.w3.org/2000/svg">
<path fill-rule="evenodd" clip-rule="evenodd" d="M198.574 59.2048C217.569 65.985 235.626 80.5007 249.849 94.0342C279.467 122.217 283.888 128.142 320.426 151.804C341.721 165.594 358.511 177.257 366.783 192.856C390.02 236.673 362.342 283.999 304.343 283.999H68.5749C68.5749 283.999 40.8417 284.6 20.6029 261.181C-47.9898 181.804 65.7783 11.8059 198.574 59.2048Z" fill="#F6FCFE"/>
<path d="M307.554 183.748L263.573 208.585L196.031 169.825L240.006 144.987L307.554 183.748Z" fill="#F48284"/>
<path opacity="0.6" d="M307.554 183.748L263.573 208.585L196.031 169.825L240.006 144.987L307.554 183.748Z" fill="black"/>
<path d="M263.093 206.771L305.595 182.648C304.539 179.652 304.615 178.742 305.816 174.754L263.573 198.657C263.573 198.657 262.802 198.574 263.093 206.771Z" fill="#F5F5F5"/>
<path d="M265.633 195.358C264.505 196.087 263.565 197.073 262.89 198.235C262.216 199.397 261.826 200.702 261.753 202.044V207.296C261.753 209.754 263.491 210.753 265.633 209.527L307.548 185.713V183.779L266.164 207.163C264.9 207.896 263.832 207.302 263.839 205.823L263.87 201.172C263.917 200.366 264.153 199.583 264.559 198.886C264.966 198.188 265.531 197.597 266.209 197.159L307.541 173.775V171.582L265.633 195.358Z" fill="#F48284"/>
<path opacity="0.5" d="M265.633 195.358C264.505 196.087 263.565 197.073 262.89 198.235C262.216 199.397 261.826 200.702 261.753 202.044V207.296C261.753 209.754 263.491 210.753 265.633 209.527L307.548 185.713V183.779L266.164 207.163C264.9 207.896 263.832 207.302 263.839 205.823L263.87 201.172C263.917 200.366 264.153 199.583 264.559 198.886C264.966 198.188 265.531 197.597 266.209 197.159L307.541 173.775V171.582L265.633 195.358Z" fill="black"/>
<path d="M307.548 171.55L240.006 132.79L198.098 156.597C196.969 157.326 196.028 158.312 195.353 159.474C194.677 160.636 194.286 161.941 194.211 163.284V168.51C194.211 169.736 194.641 170.602 195.349 171.007L262.891 209.761C262.183 209.356 261.753 208.497 261.753 207.271V202.038C261.828 200.696 262.218 199.392 262.892 198.23C263.567 197.068 264.506 196.082 265.633 195.351L307.548 171.55Z" fill="#F48284"/>
<path opacity="0.35" d="M307.548 171.55L240.006 132.79L198.098 156.597C196.969 157.326 196.028 158.312 195.353 159.474C194.677 160.636 194.286 161.941 194.211 163.284V168.51C194.211 169.736 194.641 170.602 195.349 171.007L262.891 209.761C262.183 209.356 261.753 208.497 261.753 207.271V202.038C261.828 200.696 262.218 199.392 262.892 198.23C263.567 197.068 264.506 196.082 265.633 195.351L307.548 171.55Z" fill="black"/>
<path d="M262.884 198.233C262.189 199.38 261.798 200.685 261.747 202.025V207.296C261.747 208.522 262.176 209.382 262.884 209.786L195.349 171.007C194.641 170.602 194.211 169.743 194.211 168.51V163.284C194.262 161.943 194.654 160.638 195.349 159.492L262.884 198.233Z" fill="#F48284"/>
<path opacity="0.45" d="M262.884 198.233C262.189 199.38 261.798 200.685 261.747 202.025V207.296C261.747 208.522 262.176 209.382 262.884 209.786L195.349 171.007C194.641 170.602 194.211 169.743 194.211 168.51V163.284C194.262 161.943 194.654 160.638 195.349 159.492L262.884 198.233Z" fill="black"/>
<path d="M204.475 164.661C203.211 170.128 203.211 172.245 204.475 176.271L207.685 178.129C206.421 174.122 206.421 171.986 207.685 166.519L204.475 164.661Z" fill="#F48284"/>
<path d="M248.772 190.118C247.508 195.585 247.508 197.652 248.772 201.659L251.989 203.517C250.725 199.503 250.725 197.437 251.989 191.976L248.772 190.118Z" fill="#F48284"/>
<path d="M316.427 170.899L272.446 195.737L204.905 156.976L248.879 132.139L316.427 170.899Z" fill="#F48284"/>
<path opacity="0.4" d="M316.427 170.899L272.446 195.737L204.905 156.976L248.879 132.139L316.427 170.899Z" fill="black"/>
<path d="M271.966 193.917L314.468 169.774C313.413 166.778 313.488 165.439 314.683 161.451L272.446 185.347C272.446 185.347 271.688 185.72 271.966 193.917Z" fill="#F5F5F5"/>
<path d="M274.507 182.073C273.378 182.803 272.438 183.788 271.762 184.95C271.087 186.112 270.695 187.418 270.62 188.759V194.416C270.62 196.874 272.358 197.873 274.507 196.64L316.421 172.833V170.899L275.038 194.283C273.774 195.023 272.706 194.422 272.706 192.95L272.743 187.894C272.789 187.088 273.024 186.305 273.429 185.608C273.834 184.911 274.398 184.319 275.076 183.88L316.415 160.496V158.303L274.507 182.073Z" fill="#F48284"/>
<path opacity="0.25" d="M274.507 182.073C273.378 182.803 272.438 183.788 271.762 184.95C271.087 186.112 270.695 187.418 270.62 188.759V194.416C270.62 196.874 272.358 197.873 274.507 196.64L316.421 172.833V170.899L275.038 194.283C273.774 195.023 272.706 194.422 272.706 192.95L272.743 187.894C272.789 187.088 273.024 186.305 273.429 185.608C273.834 184.911 274.398 184.319 275.076 183.88L316.415 160.496V158.303L274.507 182.073Z" fill="black"/>
<path d="M316.421 158.272L248.879 119.511L206.965 143.319C205.836 144.048 204.896 145.034 204.222 146.196C203.547 147.358 203.158 148.663 203.084 150.005V155.693C203.084 156.919 203.514 157.779 204.222 158.183L271.764 196.944C271.056 196.539 270.626 195.68 270.626 194.447V188.791C270.699 187.449 271.089 186.144 271.764 184.982C272.438 183.82 273.378 182.834 274.507 182.104L316.421 158.272Z" fill="#F48284"/>
<path d="M271.758 184.955C271.061 186.101 270.669 187.406 270.62 188.747V194.403C270.62 195.629 271.05 196.495 271.758 196.9L204.222 158.152C203.514 157.747 203.084 156.888 203.084 155.662V149.974C203.134 148.633 203.525 147.328 204.222 146.182L271.758 184.955Z" fill="#F48284"/>
<path opacity="0.15" d="M271.758 184.955C271.061 186.101 270.669 187.406 270.62 188.747V194.403C270.62 195.629 271.05 196.495 271.758 196.9L204.222 158.152C203.514 157.747 203.084 156.888 203.084 155.662V149.974C203.134 148.633 203.525 147.328 204.222 146.182L271.758 184.955Z" fill="black"/>
<path d="M213.342 151.377C212.078 156.843 212.078 159.416 213.342 163.423L216.559 165.281C215.295 161.267 215.295 158.702 216.559 153.235L213.342 151.377Z" fill="#F48284"/>
<path d="M257.645 176.865C256.381 182.332 256.381 184.809 257.645 188.816L260.862 190.674C259.598 186.668 259.598 184.171 260.862 178.704L257.645 176.865Z" fill="#F48284"/>
<g opacity="0.4">
<path d="M213.342 151.377C212.078 156.843 212.078 159.416 213.342 163.423L216.559 165.281C215.295 161.267 215.295 158.702 216.559 153.235L213.342 151.377Z" fill="white"/>
<path d="M257.645 176.865C256.381 182.332 256.381 184.809 257.645 188.816L260.862 190.674C259.598 186.668 259.598 184.171 260.862 178.704L257.645 176.865Z" fill="white"/>
</g>
<path d="M78.612 239.155L146.925 277.966L246.01 221.086L177.703 182.275L78.612 239.155Z" fill="#F48284"/>
<path opacity="0.4" d="M78.612 239.155L146.925 277.966L246.01 221.086L177.703 182.275L78.612 239.155Z" fill="black"/>
<path d="M147.437 276.026L80.7039 237.954C81.8352 234.75 81.7467 233.315 80.4701 229.056L146.925 266.868C146.925 266.868 147.746 267.266 147.437 276.026Z" fill="#F5F5F5"/>
<path d="M144.719 263.367C145.926 264.146 146.931 265.198 147.652 266.44C148.374 267.681 148.792 269.075 148.871 270.509V276.551C148.871 279.186 147.013 280.248 144.719 278.933L78.6183 241.222V239.155L144.157 276.386C145.528 277.176 146.64 276.538 146.64 274.958L146.603 269.529C146.554 268.669 146.304 267.833 145.871 267.088C145.438 266.344 144.836 265.712 144.112 265.244L78.6183 227.994V225.656L144.719 263.367Z" fill="#F48284"/>
<path opacity="0.3" d="M144.719 263.367C145.926 264.146 146.931 265.198 147.652 266.44C148.374 267.681 148.792 269.075 148.871 270.509V276.551C148.871 279.186 147.013 280.248 144.719 278.933L78.6183 241.222V239.155L144.157 276.386C145.528 277.176 146.64 276.538 146.64 274.958L146.603 269.529C146.554 268.669 146.304 267.833 145.871 267.088C145.438 266.344 144.836 265.712 144.112 265.244L78.6183 227.994V225.656L144.719 263.367Z" fill="black"/>
<path d="M78.6183 225.656L177.703 168.776L243.804 206.487C245.011 207.266 246.016 208.318 246.737 209.56C247.459 210.801 247.877 212.195 247.956 213.629V219.671C247.956 220.985 247.495 221.908 246.743 222.338L147.652 279.218C148.404 278.788 148.865 277.859 148.865 276.551V270.496C148.786 269.063 148.369 267.669 147.648 266.428C146.928 265.187 145.924 264.134 144.719 263.354L78.6183 225.656Z" fill="#F48284"/>
<path opacity="0.2" d="M78.6183 225.656L177.703 168.776L243.804 206.487C245.011 207.266 246.016 208.318 246.737 209.56C247.459 210.801 247.877 212.195 247.956 213.629V219.671C247.956 220.985 247.495 221.908 246.743 222.338L147.652 279.218C148.404 278.788 148.865 277.859 148.865 276.551V270.496C148.786 269.063 148.369 267.669 147.648 266.428C146.928 265.187 145.924 264.134 144.719 263.354L78.6183 225.656Z" fill="black"/>
<path d="M147.658 266.445C148.404 267.673 148.822 269.072 148.871 270.509V276.557C148.871 277.865 148.41 278.794 147.658 279.224L246.749 222.344C247.501 221.914 247.963 220.991 247.963 219.677V213.616C247.91 212.18 247.493 210.782 246.749 209.552L147.658 266.445Z" fill="#F48284"/>
<path d="M147.658 266.445C148.405 267.673 148.823 269.072 148.871 270.509V276.557C148.871 277.865 148.41 278.788 147.658 279.224L246.743 222.344C247.501 221.914 247.956 220.985 247.963 219.677V213.616C247.914 212.18 247.496 210.78 246.749 209.552L147.658 266.445Z" fill="#F48284"/>
<path d="M236.991 215.108C238.337 220.947 238.318 223.69 236.991 227.975L233.553 229.96C234.88 225.675 234.899 222.932 233.553 217.092L236.991 215.108Z" fill="#F48284"/>
<path d="M162.738 257.786C164.084 263.626 164.065 266.287 162.738 270.572L159.306 272.537C160.627 268.252 160.646 265.585 159.306 259.758L162.738 257.786Z" fill="#F48284"/>
<g opacity="0.4">
<path d="M236.991 215.107C238.337 220.947 238.318 223.69 236.991 227.975L233.553 229.959C234.88 225.675 234.899 222.932 233.553 217.092L236.991 215.107Z" fill="white"/>
<path d="M162.738 257.786C164.084 263.626 164.065 266.287 162.738 270.572L159.306 272.537C160.627 268.252 160.646 265.585 159.306 259.758L162.738 257.786Z" fill="white"/>
</g>
<path d="M69.8588 226.028L138.172 264.84L237.257 207.96L168.95 169.148L69.8588 226.028Z" fill="#F48284"/>
<path opacity="0.2" d="M69.8588 226.028L138.172 264.84L237.257 207.96L168.95 169.148L69.8588 226.028Z" fill="white"/>
<path d="M138.684 262.912L71.976 224.828C73.1073 221.623 73.0188 220.65 71.7422 216.39L138.197 254.197C138.197 254.197 138.968 254.14 138.684 262.912Z" fill="#F5F5F5"/>
<path d="M135.966 250.702C137.172 251.48 138.177 252.533 138.899 253.774C139.621 255.015 140.039 256.41 140.118 257.843V263.424C140.118 266.059 138.26 267.121 135.966 265.807L69.8651 228.095V226.028L135.404 263.26C136.775 264.05 137.887 263.411 137.887 261.831L137.849 256.864C137.801 256.003 137.55 255.166 137.118 254.42C136.685 253.674 136.083 253.041 135.359 252.572L69.8651 215.329V212.984L135.966 250.702Z" fill="#F48284"/>
<path opacity="0.4" d="M135.966 250.702C137.172 251.48 138.177 252.533 138.899 253.774C139.621 255.015 140.039 256.41 140.118 257.843V263.424C140.118 266.059 138.26 267.121 135.966 265.807L69.8651 228.095V226.028L135.404 263.26C136.775 264.05 137.887 263.411 137.887 261.831L137.849 256.864C137.801 256.003 137.55 255.166 137.118 254.42C136.685 253.674 136.083 253.041 135.359 252.572L69.8651 215.329V212.984L135.966 250.702Z" fill="white"/>
<path d="M69.8588 212.984L168.95 156.104L235.032 193.822C236.243 194.6 237.252 195.654 237.977 196.898C238.702 198.141 239.122 199.539 239.203 200.976V206.557C239.203 207.871 238.742 208.794 237.983 209.224L138.898 266.072C139.651 265.636 140.112 264.713 140.112 263.405V257.856C140.032 256.422 139.615 255.028 138.895 253.786C138.175 252.543 137.171 251.489 135.966 250.708L69.8588 212.984Z" fill="#F48284"/>
<path opacity="0.85" d="M69.8588 212.984L168.95 156.104L235.032 193.822C236.243 194.6 237.252 195.654 237.977 196.898C238.702 198.141 239.122 199.539 239.203 200.976V206.557C239.203 207.871 238.742 208.794 237.983 209.224L138.898 266.072C139.651 265.636 140.112 264.713 140.112 263.405V257.856C140.032 256.422 139.615 255.028 138.895 253.786C138.175 252.543 137.171 251.489 135.966 250.708L69.8588 212.984Z" fill="white"/>
<path d="M138.905 253.78C139.652 255.007 140.07 256.407 140.118 257.843V263.43C140.118 264.738 139.657 265.661 138.905 266.097L237.99 209.217C238.748 208.788 239.21 207.865 239.21 206.55V200.976C239.159 199.539 238.738 198.14 237.99 196.912L138.905 253.78Z" fill="#F48284"/>
<path opacity="0.6" d="M138.905 253.78C139.652 255.007 140.07 256.407 140.118 257.843V263.43C140.118 264.738 139.657 265.661 138.905 266.097L237.99 209.217C238.748 208.788 239.21 207.865 239.21 206.55V200.976C239.159 199.539 238.738 198.14 237.99 196.912L138.905 253.78Z" fill="white"/>
<path d="M228.238 202.442C229.584 208.282 229.565 210.563 228.238 214.848L224.8 216.833C226.127 212.548 226.146 210.266 224.8 204.42L228.238 202.442Z" fill="white"/>
<path d="M153.984 245.102C155.33 250.942 155.312 253.154 153.984 257.439L150.546 259.417C151.873 255.138 151.892 252.926 150.546 247.087L153.984 245.102Z" fill="white"/>
<path d="M194.988 59.8441L204.563 54.8386C204.563 54.8386 210.637 56.3934 220.787 55.793C235.797 54.9018 244.556 48.5629 242.325 39.6643C240.037 30.5446 230.001 26.9611 212.109 27.6563C189.73 28.5285 184.301 43.7028 197.662 52.6709L194.988 59.8441Z" fill="#F48284"/>
<path opacity="0.7" d="M194.988 59.8441L204.563 54.8386C204.563 54.8386 210.637 56.3934 220.787 55.793C235.797 54.9018 244.556 48.5629 242.325 39.6643C240.037 30.5446 230.001 26.9611 212.109 27.6563C189.73 28.5285 184.301 43.7028 197.662 52.6709L194.988 59.8441Z" fill="white"/>
<path d="M205.252 44.4422C206.572 44.4422 207.641 43.3727 207.641 42.0533C207.641 40.7339 206.572 39.6643 205.252 39.6643C203.933 39.6643 202.863 40.7339 202.863 42.0533C202.863 43.3727 203.933 44.4422 205.252 44.4422Z" fill="white"/>
<path d="M216.477 44.4422C217.796 44.4422 218.865 43.3727 218.865 42.0533C218.865 40.7339 217.796 39.6643 216.477 39.6643C215.157 39.6643 214.088 40.7339 214.088 42.0533C214.088 43.3727 215.157 44.4422 216.477 44.4422Z" fill="white"/>
<path d="M227.701 44.4422C229.02 44.4422 230.09 43.3727 230.09 42.0533C230.09 40.7339 229.02 39.6643 227.701 39.6643C226.381 39.6643 225.312 40.7339 225.312 42.0533C225.312 43.3727 226.381 44.4422 227.701 44.4422Z" fill="white"/>
<path d="M74.6747 204.313C74.6747 205.944 75.9007 206.993 77.4112 207.865L139.252 243.573C140.099 244.003 141.036 244.227 141.986 244.227C142.936 244.227 143.872 244.003 144.719 243.573L244.512 185.972C246.022 185.1 247.249 183.975 247.249 182.345C247.249 180.714 246.022 179.697 244.518 178.824L182.639 143.123C181.793 142.693 180.858 142.468 179.909 142.468C178.96 142.468 178.025 142.693 177.179 143.123L77.4112 200.723C75.9007 201.608 74.6747 202.676 74.6747 204.313Z" fill="#37474F"/>
<path d="M77.4112 203.877L139.252 239.579C140.099 240.009 141.036 240.233 141.986 240.233C142.936 240.233 143.872 240.009 144.719 239.579L244.512 181.978C246.016 181.112 246.016 179.697 244.512 178.818L182.639 143.123C181.793 142.693 180.858 142.468 179.909 142.468C178.96 142.468 178.025 142.693 177.179 143.123L77.4112 200.723C75.9007 201.608 75.9007 203.005 77.4112 203.877Z" fill="#455A64"/>
<path d="M141.989 240.242V244.224C141.038 244.25 140.096 244.032 139.252 243.592L77.4112 207.865C75.9007 206.993 74.6747 205.969 74.6747 204.313C74.6747 202.777 75.7743 201.709 77.2027 200.843C76.0271 201.671 76.0082 203.062 77.4175 203.877L139.259 239.585C140.098 240.033 141.038 240.259 141.989 240.242Z" fill="#263238"/>
<path d="M73.4926 201.146C72.2918 200.59 71.9695 199.642 71.8494 197.986L66.49 119.555C66.4864 118.635 66.7165 117.729 67.1587 116.922C67.6008 116.115 68.2406 115.434 69.018 114.942L168.786 57.3159C170.29 56.4438 171.396 55.9698 172.792 56.9241C174.189 57.8784 174.214 58.403 174.328 60.0841L179.688 138.522C179.692 139.442 179.462 140.348 179.02 141.155C178.578 141.962 177.937 142.643 177.16 143.135L77.3984 200.729C75.8879 201.608 75.0347 201.854 73.4926 201.146Z" fill="#37474F"/>
<path d="M174.36 60.0779C174.246 58.4031 172.932 57.7522 171.421 58.618L71.6221 116.225C70.8201 116.708 70.1647 117.401 69.7261 118.228L67.1475 116.92C67.5907 116.096 68.2451 115.404 69.0435 114.917L168.779 57.3161C170.29 56.4439 171.402 55.9636 172.793 56.9242C174.183 57.8849 174.215 58.4031 174.36 60.0779Z" fill="#455A64"/>
<path d="M77.1963 200.843C75.8186 201.652 74.9527 201.753 73.4928 201.14C72.3742 200.673 71.9697 199.642 71.8559 197.98L66.4902 119.53C66.4521 118.62 66.6711 117.718 67.1222 116.926L69.7261 118.222C69.2797 119.015 69.061 119.916 69.0941 120.826L74.4598 199.27C74.5609 200.824 75.9071 201.608 77.1963 200.843Z" fill="#263238"/>
<path d="M73.3538 119.22L169.367 63.832C170.271 63.3074 171.061 63.6993 171.13 64.7042L176.13 137.877C176.132 138.429 175.995 138.972 175.731 139.456C175.467 139.94 175.084 140.349 174.619 140.645L78.6057 196.034C77.7019 196.558 76.9119 196.166 76.8424 195.162L71.837 121.976C71.8387 121.426 71.9785 120.886 72.2435 120.405C72.5086 119.923 72.8903 119.516 73.3538 119.22Z" fill="black"/>
<path d="M73.3538 119.22C72.8885 119.517 72.5056 119.926 72.2405 120.41C71.9754 120.894 71.8366 121.437 71.837 121.989L76.7603 193.942L171.674 139.16C172.139 138.864 172.522 138.455 172.786 137.971C173.05 137.487 173.187 136.943 173.185 136.392L168.268 64.464L73.3538 119.22Z" fill="#F48284"/>
<path opacity="0.8" d="M73.3538 119.22C72.8885 119.517 72.5056 119.926 72.2405 120.41C71.9754 120.894 71.8366 121.437 71.837 121.989L76.7603 193.942L171.674 139.16C172.139 138.864 172.522 138.455 172.786 137.971C173.05 137.487 173.187 136.943 173.185 136.392L168.268 64.464L73.3538 119.22Z" fill="white"/>
<path d="M85.88 201.185L177.52 148.255C177.92 148.052 178.361 147.946 178.809 147.946C179.257 147.946 179.699 148.052 180.099 148.255L183.442 150.151C183.597 150.205 183.731 150.305 183.825 150.439C183.92 150.573 183.971 150.732 183.971 150.896C183.971 151.06 183.92 151.22 183.825 151.354C183.731 151.487 183.597 151.588 183.442 151.642L91.7513 204.54C91.3517 204.743 90.91 204.849 90.462 204.849C90.014 204.849 89.5723 204.743 89.1727 204.54L85.8484 202.644C85.7027 202.584 85.5786 202.481 85.4924 202.349C85.4062 202.217 85.3619 202.061 85.3654 201.904C85.3688 201.746 85.4197 201.593 85.5115 201.465C85.6034 201.336 85.7318 201.239 85.88 201.185Z" fill="#263238"/>
<path d="M94.8481 206.493L186.532 153.576C186.887 153.373 187.285 153.255 187.693 153.233C188.101 153.211 188.509 153.285 188.883 153.45L212.748 167.227C213.335 167.568 213.241 168.175 212.526 168.586L120.95 221.446C120.595 221.649 120.198 221.767 119.79 221.79C119.382 221.813 118.974 221.741 118.599 221.579L94.6332 207.865C94.0391 207.511 94.1402 206.904 94.8481 206.493Z" fill="#263238"/>
<path d="M174.297 175.797L177.166 174.141C177.286 174.065 177.299 173.958 177.166 173.895L174.417 172.315C174.352 172.282 174.281 172.265 174.208 172.265C174.136 172.265 174.064 172.282 174 172.315L171.13 173.971C171.01 174.04 170.998 174.148 171.13 174.211L173.88 175.797C173.944 175.83 174.016 175.847 174.088 175.847C174.161 175.847 174.232 175.83 174.297 175.797ZM170.1 170.059L167.231 171.721C167.111 171.79 167.098 171.898 167.231 171.961L169.936 173.547C170 173.581 170.072 173.599 170.145 173.599C170.217 173.599 170.289 173.581 170.353 173.547L173.222 171.891C173.342 171.822 173.355 171.714 173.222 171.651L170.473 170.065C170.415 170.038 170.352 170.023 170.287 170.022C170.223 170.021 170.159 170.034 170.1 170.059ZM160.829 175.418L155.969 178.224C155.849 178.3 155.836 178.407 155.969 178.47L158.718 180.05C158.783 180.083 158.854 180.1 158.927 180.1C158.999 180.1 159.07 180.083 159.135 180.05L163.995 177.244C164.115 177.175 164.128 177.067 163.995 177.004L161.252 175.418C161.186 175.386 161.114 175.369 161.041 175.369C160.967 175.369 160.895 175.386 160.829 175.418ZM165.885 172.485L163.009 174.141C162.889 174.211 162.877 174.318 163.009 174.381L165.758 175.968C165.823 176 165.895 176.018 165.967 176.018C166.04 176.018 166.111 176 166.176 175.968L169.045 174.306C169.165 174.236 169.178 174.129 169.045 174.065L166.296 172.479C166.235 172.453 166.169 172.44 166.102 172.441C166.036 172.442 165.97 172.457 165.91 172.485H165.885ZM154.648 178.982L151.772 180.645C151.652 180.714 151.64 180.821 151.772 180.885L154.515 182.471C154.58 182.505 154.651 182.522 154.724 182.522C154.796 182.522 154.868 182.505 154.932 182.471L157.802 180.815C157.928 180.746 157.934 180.638 157.802 180.575L155.059 178.989C154.995 178.956 154.925 178.938 154.854 178.937C154.783 178.936 154.712 178.952 154.648 178.982ZM150.451 181.384L147.582 183.04C147.456 183.109 147.449 183.217 147.582 183.28L150.325 184.866C150.39 184.899 150.461 184.916 150.534 184.916C150.606 184.916 150.678 184.899 150.742 184.866L153.611 183.204C153.738 183.135 153.744 183.027 153.611 182.964L150.869 181.384C150.804 181.351 150.732 181.334 150.66 181.334C150.588 181.334 150.516 181.351 150.451 181.384ZM161.195 187.849L164.065 186.193C164.191 186.124 164.197 186.017 164.065 185.953L161.322 184.367C161.257 184.334 161.186 184.317 161.113 184.317C161.041 184.317 160.969 184.334 160.905 184.367L158.029 186.029C157.909 186.099 157.896 186.206 158.029 186.269L160.772 187.856C160.838 187.897 160.913 187.92 160.991 187.924C161.068 187.927 161.145 187.91 161.214 187.875L161.195 187.849ZM156.999 190.276L159.868 188.614C159.995 188.545 160.001 188.437 159.868 188.374L157.125 186.794C157.061 186.761 156.989 186.744 156.917 186.744C156.844 186.744 156.773 186.761 156.708 186.794L153.839 188.45C153.713 188.519 153.706 188.627 153.839 188.69L156.582 190.276C156.647 190.316 156.721 190.339 156.797 190.344C156.873 190.348 156.949 190.334 157.018 190.301L156.999 190.276ZM152.802 192.697L155.678 191.041C155.798 190.971 155.811 190.864 155.678 190.801L152.935 189.214C152.871 189.182 152.799 189.165 152.727 189.165C152.654 189.165 152.583 189.182 152.518 189.214L149.712 190.908C149.586 190.978 149.579 191.085 149.712 191.148L152.455 192.735C152.514 192.758 152.576 192.769 152.639 192.766C152.703 192.764 152.764 192.749 152.821 192.722L152.802 192.697ZM148.612 195.117L151.482 193.461C151.602 193.392 151.614 193.285 151.482 193.221L148.732 191.635C148.668 191.602 148.596 191.585 148.524 191.585C148.451 191.585 148.38 191.602 148.315 191.635L145.446 193.297C145.326 193.367 145.313 193.474 145.446 193.537L148.195 195.117C148.26 195.157 148.334 195.18 148.41 195.185C148.486 195.189 148.562 195.175 148.631 195.143L148.612 195.117ZM170.1 178.192L172.97 176.537C173.09 176.467 173.102 176.36 172.97 176.296L170.22 174.71C170.156 174.677 170.084 174.66 170.012 174.66C169.939 174.66 169.868 174.677 169.803 174.71L166.934 176.366C166.814 176.435 166.801 176.549 166.934 176.606L169.683 178.224C169.748 178.257 169.819 178.274 169.892 178.274C169.964 178.274 170.036 178.257 170.1 178.224V178.192ZM165.411 185.429L171.832 181.757C171.952 181.687 171.965 181.58 171.832 181.517L165.164 177.668C165.1 177.635 165.028 177.618 164.956 177.618C164.883 177.618 164.812 177.635 164.747 177.668L161.436 179.564C161.309 179.633 161.303 179.741 161.436 179.804L164.962 181.839C165.076 181.902 165.063 182.01 164.962 182.079L162.308 183.609C162.188 183.684 162.175 183.792 162.308 183.855L165.057 185.435C165.112 185.461 165.171 185.477 165.232 185.48C165.293 185.483 165.354 185.474 165.411 185.454V185.429ZM146.255 183.805L143.392 185.486C143.266 185.555 143.259 185.663 143.392 185.726L146.135 187.312C146.2 187.345 146.271 187.362 146.343 187.362C146.416 187.362 146.487 187.345 146.552 187.312L149.428 185.656C149.548 185.587 149.56 185.479 149.428 185.416L146.685 183.83C146.618 183.795 146.545 183.777 146.47 183.777C146.395 183.777 146.321 183.795 146.255 183.83V183.805ZM142.058 186.225L139.189 187.881C139.069 187.957 139.056 188.064 139.189 188.127L141.938 189.707C142.003 189.74 142.074 189.757 142.147 189.757C142.219 189.757 142.291 189.74 142.356 189.707L145.225 188.052C145.345 187.982 145.358 187.875 145.225 187.811L142.476 186.225C142.409 186.196 142.337 186.183 142.264 186.188C142.192 186.192 142.121 186.214 142.058 186.25V186.225ZM118.845 212.087C118.91 212.119 118.981 212.136 119.054 212.136C119.126 212.136 119.198 212.119 119.262 212.087L122.132 210.431C122.252 210.361 122.264 210.254 122.132 210.191L119.382 208.604C119.318 208.571 119.246 208.554 119.174 208.554C119.101 208.554 119.03 208.571 118.965 208.604L116.096 210.26C115.976 210.336 115.963 210.443 116.096 210.5L118.845 212.087ZM108.493 205.602L105.624 207.296C105.504 207.366 105.491 207.473 105.624 207.536L108.373 209.122C108.438 209.153 108.509 209.169 108.581 209.169C108.654 209.169 108.725 209.153 108.79 209.122L111.659 207.467C111.779 207.397 111.792 207.29 111.659 207.226L108.91 205.64C108.846 205.605 108.776 205.586 108.703 205.584C108.631 205.582 108.559 205.597 108.493 205.627V205.602ZM113.814 210.462C113.879 210.495 113.95 210.512 114.023 210.512C114.095 210.512 114.167 210.495 114.232 210.462L117.101 208.8C117.227 208.731 117.234 208.623 117.101 208.56L114.358 206.974C114.294 206.94 114.222 206.922 114.149 206.922C114.077 206.922 114.005 206.94 113.941 206.974L111.072 208.629C110.945 208.699 110.939 208.806 111.072 208.87L113.814 210.462ZM125.393 213.066L128.262 211.41C128.382 211.334 128.395 211.227 128.262 211.164L125.513 209.584C125.448 209.551 125.377 209.534 125.304 209.534C125.232 209.534 125.16 209.551 125.096 209.584L122.226 211.24C122.106 211.309 122.094 211.417 122.226 211.48L124.976 213.066C125.038 213.103 125.109 213.124 125.181 213.129C125.254 213.133 125.326 213.12 125.393 213.091V213.066ZM120.779 215.499C120.844 215.532 120.915 215.549 120.988 215.549C121.06 215.549 121.132 215.532 121.196 215.499L124.065 213.843C124.186 213.774 124.198 213.667 124.065 213.603L121.323 212.017C121.258 211.984 121.186 211.967 121.114 211.967C121.042 211.967 120.97 211.984 120.905 212.017L118.03 213.673C117.91 213.742 117.897 213.85 118.03 213.913L120.779 215.499ZM112.689 203.182L109.82 204.837C109.7 204.913 109.687 205.021 109.82 205.078L112.569 206.664C112.634 206.697 112.705 206.714 112.778 206.714C112.85 206.714 112.922 206.697 112.986 206.664L115.856 205.008C115.976 204.939 115.988 204.831 115.856 204.768L113.107 203.182C113.04 203.153 112.967 203.14 112.895 203.144C112.823 203.149 112.752 203.17 112.689 203.207V203.182ZM133.666 191.073L130.796 192.76C130.676 192.83 130.664 192.937 130.796 193L133.545 194.586C133.61 194.619 133.682 194.636 133.754 194.636C133.826 194.636 133.898 194.619 133.963 194.586L136.832 192.931C136.952 192.855 136.965 192.747 136.832 192.684L134.083 191.104C134.019 191.07 133.947 191.052 133.875 191.051C133.802 191.05 133.731 191.066 133.666 191.098V191.073ZM116.886 200.786L114.017 202.442C113.897 202.512 113.884 202.619 114.017 202.682L116.766 204.269C116.83 204.301 116.902 204.319 116.974 204.319C117.047 204.319 117.118 204.301 117.183 204.269L120.052 202.613C120.172 202.537 120.185 202.43 120.052 202.366L117.303 200.786C117.238 200.754 117.167 200.737 117.094 200.737C117.022 200.737 116.951 200.754 116.886 200.786ZM137.862 188.677L134.993 190.333C134.873 190.403 134.86 190.51 134.993 190.573L137.742 192.16C137.806 192.193 137.878 192.211 137.95 192.211C138.023 192.211 138.095 192.193 138.159 192.16L141.028 190.504C141.148 190.434 141.161 190.327 141.028 190.264L138.279 188.677C138.215 188.643 138.143 188.626 138.071 188.626C137.998 188.626 137.926 188.643 137.862 188.677ZM129.488 193.518L126.612 195.174C126.492 195.244 126.48 195.351 126.612 195.414L129.355 197.001C129.42 197.033 129.491 197.051 129.564 197.051C129.636 197.051 129.708 197.033 129.772 197.001L132.642 195.345C132.768 195.275 132.774 195.168 132.642 195.105L129.899 193.518C129.835 193.487 129.765 193.47 129.693 193.47C129.622 193.47 129.552 193.487 129.488 193.518ZM125.279 195.92L122.41 197.582C122.283 197.652 122.277 197.759 122.41 197.822L125.152 199.409C125.218 199.44 125.289 199.456 125.361 199.456C125.433 199.456 125.504 199.44 125.57 199.409L128.439 197.753C128.565 197.683 128.572 197.576 128.439 197.513L125.696 195.92C125.631 195.887 125.56 195.87 125.487 195.87C125.415 195.87 125.344 195.887 125.279 195.92ZM121.082 198.347L118.213 200.003C118.087 200.072 118.08 200.18 118.213 200.243L120.956 201.829C121.021 201.862 121.092 201.879 121.165 201.879C121.237 201.879 121.308 201.862 121.373 201.829L124.249 200.167C124.369 200.098 124.381 199.99 124.249 199.927L121.506 198.341C121.439 198.31 121.365 198.296 121.291 198.3C121.217 198.304 121.145 198.327 121.082 198.366V198.347ZM140.232 199.99L143.101 198.334C143.221 198.258 143.234 198.151 143.101 198.088L140.352 196.508C140.287 196.475 140.216 196.458 140.144 196.458C140.071 196.458 140 196.475 139.935 196.508L137.072 198.176C136.952 198.246 136.939 198.353 137.072 198.416L139.821 200.003C139.886 200.032 139.957 200.047 140.028 200.045C140.099 200.042 140.169 200.024 140.232 199.99ZM179.372 164.705L176.502 166.361C176.376 166.437 176.37 166.545 176.502 166.608L179.245 168.188C179.31 168.221 179.381 168.238 179.454 168.238C179.526 168.238 179.598 168.221 179.662 168.188L182.532 166.532C182.658 166.462 182.664 166.355 182.532 166.292L179.789 164.705C179.725 164.674 179.655 164.657 179.583 164.657C179.512 164.657 179.442 164.674 179.378 164.705H179.372ZM174.316 167.638L171.446 169.294C171.326 169.37 171.314 169.477 171.446 169.534L174.196 171.12C174.26 171.153 174.332 171.17 174.404 171.17C174.477 171.17 174.548 171.153 174.613 171.12L177.482 169.464C177.602 169.395 177.615 169.288 177.482 169.224L174.733 167.638C174.666 167.602 174.591 167.583 174.515 167.583C174.439 167.583 174.364 167.602 174.297 167.638H174.316ZM183.594 162.285L180.68 163.941C180.56 164.01 180.547 164.118 180.68 164.181L183.423 165.767C183.488 165.8 183.559 165.817 183.631 165.817C183.704 165.817 183.775 165.8 183.84 165.767L186.709 164.111C186.836 164.042 186.842 163.928 186.709 163.871L183.966 162.285C183.905 162.256 183.838 162.241 183.77 162.241C183.703 162.241 183.636 162.256 183.575 162.285H183.594ZM160.399 183.83L163.275 182.168C163.395 182.098 163.407 181.991 163.275 181.927L160.526 180.341C160.46 180.31 160.389 180.294 160.317 180.294C160.245 180.294 160.174 180.31 160.108 180.341L157.245 182.016C157.125 182.086 157.113 182.193 157.245 182.256L159.988 183.842C160.051 183.869 160.118 183.882 160.186 183.88C160.253 183.878 160.32 183.861 160.38 183.83H160.399ZM188.207 159.814C188.142 159.783 188.071 159.767 187.999 159.767C187.926 159.767 187.855 159.783 187.79 159.814L184.921 161.47C184.801 161.539 184.788 161.647 184.921 161.71L187.67 163.296C187.735 163.329 187.806 163.346 187.878 163.346C187.951 163.346 188.022 163.329 188.087 163.296L190.956 161.634C191.076 161.564 191.089 161.457 190.956 161.394L188.207 159.814ZM144.435 197.563L147.304 195.907C147.424 195.838 147.437 195.73 147.304 195.667L144.555 194.081C144.491 194.047 144.419 194.029 144.346 194.029C144.274 194.029 144.202 194.047 144.138 194.081L141.268 195.737C141.148 195.806 141.136 195.914 141.268 195.977L144.018 197.563C144.082 197.597 144.154 197.615 144.226 197.615C144.299 197.615 144.37 197.597 144.435 197.563ZM195.88 167.859L198.755 166.216C198.875 166.146 198.888 166.039 198.755 165.976L196.006 164.389C195.942 164.356 195.87 164.338 195.797 164.338C195.725 164.338 195.653 164.356 195.589 164.389L192.72 166.045C192.6 166.115 192.587 166.222 192.72 166.285L195.462 167.872C195.528 167.904 195.6 167.92 195.673 167.918C195.745 167.916 195.816 167.895 195.88 167.859ZM187.765 168.017L190.634 166.361C190.754 166.292 190.767 166.184 190.634 166.121L187.885 164.535C187.82 164.502 187.749 164.485 187.676 164.485C187.604 164.485 187.532 164.502 187.468 164.535L184.624 166.216C184.504 166.286 184.491 166.393 184.624 166.456L187.373 168.042C187.436 168.066 187.504 168.075 187.571 168.071C187.639 168.067 187.705 168.048 187.765 168.017ZM192.107 162.114C192.042 162.082 191.97 162.064 191.898 162.064C191.826 162.064 191.754 162.082 191.689 162.114L188.82 163.77C188.7 163.84 188.687 163.953 188.82 164.01L191.569 165.597C191.634 165.629 191.705 165.646 191.778 165.646C191.85 165.646 191.922 165.629 191.986 165.597L194.856 163.941C194.976 163.871 194.988 163.764 194.856 163.701L192.107 162.114ZM192.991 161.602L199.64 165.451C199.705 165.484 199.776 165.501 199.849 165.501C199.921 165.501 199.992 165.484 200.057 165.451L202.926 163.795C203.053 163.726 203.059 163.618 202.926 163.555L196.259 159.706C196.194 159.674 196.123 159.657 196.05 159.657C195.978 159.657 195.906 159.674 195.842 159.706L192.972 161.362C192.897 161.432 192.884 161.539 192.991 161.602ZM183.303 166.974L180.427 168.63C180.307 168.7 180.294 168.807 180.427 168.87L183.176 170.457C183.241 170.489 183.313 170.507 183.385 170.507C183.457 170.507 183.529 170.489 183.594 170.457L186.463 168.795C186.583 168.725 186.596 168.618 186.463 168.554L183.72 166.968C183.655 166.935 183.583 166.918 183.511 166.919C183.438 166.92 183.366 166.939 183.303 166.974ZM151.703 185.201L148.834 186.857C148.713 186.933 148.701 187.04 148.834 187.104L151.583 188.684C151.647 188.716 151.719 188.733 151.791 188.733C151.864 188.733 151.935 188.716 152 188.684L154.869 187.028C154.989 186.958 155.002 186.851 154.869 186.788L152.139 185.176C152.074 185.143 152.003 185.126 151.93 185.126C151.858 185.126 151.786 185.143 151.722 185.176L151.703 185.201ZM191.253 170.299C191.318 170.331 191.389 170.349 191.462 170.349C191.534 170.349 191.606 170.331 191.67 170.299L194.54 168.637C194.66 168.567 194.672 168.46 194.54 168.396L191.791 166.81C191.725 166.779 191.654 166.763 191.582 166.763C191.51 166.763 191.439 166.779 191.373 166.81L188.504 168.466C188.384 168.535 188.371 168.643 188.504 168.706L191.253 170.299ZM155.899 182.781L153.03 184.437C152.91 184.506 152.897 184.613 153.03 184.677L155.779 186.263C155.844 186.296 155.915 186.313 155.988 186.313C156.06 186.313 156.132 186.296 156.196 186.263L159.066 184.607C159.186 184.538 159.198 184.424 159.066 184.367L156.316 182.781C156.254 182.751 156.186 182.736 156.117 182.736C156.048 182.736 155.98 182.751 155.918 182.781H155.899ZM123.035 209.691C123.1 209.724 123.171 209.741 123.244 209.741C123.316 209.741 123.388 209.724 123.452 209.691L126.322 208.035C126.442 207.96 126.454 207.852 126.322 207.789L123.572 206.209C123.508 206.176 123.436 206.159 123.364 206.159C123.291 206.159 123.22 206.176 123.155 206.209L120.286 207.865C120.166 207.934 120.153 208.042 120.286 208.105L123.035 209.691ZM118.156 204.578L115.281 206.241C115.161 206.31 115.148 206.417 115.281 206.481L118.024 208.067C118.089 208.098 118.16 208.114 118.232 208.114C118.304 208.114 118.375 208.098 118.441 208.067L121.31 206.411C121.436 206.342 121.443 206.234 121.31 206.171L118.567 204.585C118.505 204.553 118.436 204.536 118.366 204.535C118.295 204.534 118.226 204.549 118.163 204.578H118.156ZM127.636 207.258L130.512 205.596C130.632 205.526 130.645 205.419 130.512 205.356L127.769 203.769C127.705 203.736 127.633 203.718 127.56 203.718C127.488 203.718 127.416 203.736 127.352 203.769L124.483 205.425C124.356 205.495 124.35 205.602 124.483 205.665L127.225 207.252C127.29 207.287 127.363 207.305 127.436 207.306C127.51 207.307 127.583 207.291 127.649 207.258H127.636ZM131.833 204.831L134.702 203.175C134.828 203.106 134.835 202.998 134.702 202.935L132.016 201.349C131.951 201.316 131.88 201.299 131.807 201.299C131.735 201.299 131.664 201.316 131.599 201.349L128.73 203.011C128.603 203.081 128.597 203.188 128.73 203.251L131.472 204.837C131.532 204.861 131.596 204.873 131.66 204.871C131.724 204.87 131.787 204.857 131.845 204.831H131.833ZM136.029 202.411L138.898 200.755C139.025 200.685 139.031 200.578 138.898 200.515L136.156 198.928C136.091 198.896 136.02 198.878 135.947 198.878C135.875 198.878 135.803 198.896 135.738 198.928L132.863 200.584C132.743 200.654 132.73 200.767 132.863 200.824L135.606 202.411C135.673 202.447 135.748 202.465 135.824 202.465C135.9 202.465 135.975 202.447 136.042 202.411H136.029ZM122.34 202.158L119.471 203.814C119.351 203.883 119.338 203.991 119.471 204.054L122.22 205.64C122.285 205.673 122.356 205.69 122.429 205.69C122.501 205.69 122.572 205.673 122.637 205.64L125.506 203.984C125.626 203.915 125.639 203.807 125.506 203.744L122.757 202.158C122.694 202.127 122.625 202.111 122.555 202.111C122.485 202.111 122.416 202.127 122.353 202.158H122.34ZM126.537 199.737L123.667 201.393C123.547 201.463 123.535 201.57 123.667 201.633L126.416 203.22C126.481 203.252 126.553 203.269 126.625 203.269C126.698 203.269 126.769 203.252 126.834 203.22L129.703 201.557C129.823 201.488 129.836 201.38 129.703 201.317L126.96 199.712C126.896 199.68 126.826 199.664 126.755 199.664C126.683 199.664 126.613 199.68 126.549 199.712L126.537 199.737ZM143.322 190.049L140.447 191.705C140.327 191.774 140.314 191.881 140.447 191.945L143.19 193.531C143.254 193.564 143.326 193.581 143.398 193.581C143.471 193.581 143.542 193.564 143.607 193.531L146.476 191.869C146.603 191.799 146.609 191.692 146.476 191.629L143.733 190.042C143.67 190.015 143.602 190.002 143.534 190.003C143.465 190.004 143.397 190.02 143.335 190.049H143.322ZM139.126 192.469L136.257 194.125C136.13 194.195 136.124 194.302 136.257 194.365L139 195.952C139.064 195.984 139.136 196.001 139.208 196.001C139.281 196.001 139.352 195.984 139.417 195.952L142.286 194.296C142.412 194.226 142.419 194.119 142.286 194.056L139.543 192.469C139.48 192.439 139.411 192.423 139.341 192.423C139.271 192.423 139.202 192.439 139.139 192.469H139.126ZM147.513 187.622L144.656 189.284C144.536 189.354 144.523 189.461 144.656 189.524L147.405 191.11C147.47 191.144 147.541 191.162 147.614 191.162C147.686 191.162 147.758 191.144 147.822 191.11L150.692 189.455C150.812 189.385 150.824 189.278 150.692 189.214L147.942 187.628C147.878 187.594 147.807 187.576 147.735 187.575C147.662 187.574 147.59 187.59 147.525 187.622H147.513ZM130.752 197.317L127.883 198.973C127.763 199.042 127.75 199.149 127.883 199.213L130.632 200.799C130.696 200.833 130.768 200.85 130.84 200.85C130.913 200.85 130.985 200.833 131.049 200.799L133.918 199.143C134.038 199.074 134.051 198.966 133.918 198.903L131.169 197.317C131.105 197.283 131.033 197.265 130.961 197.265C130.888 197.265 130.816 197.283 130.752 197.317ZM134.948 194.89L132.073 196.552C131.946 196.628 131.94 196.735 132.073 196.798L134.816 198.378C134.88 198.411 134.952 198.428 135.024 198.428C135.097 198.428 135.168 198.411 135.233 198.378L138.108 196.723C138.229 196.653 138.241 196.546 138.108 196.482L135.359 194.896C135.295 194.862 135.224 194.844 135.151 194.843C135.079 194.842 135.007 194.858 134.942 194.89H134.948ZM129.595 210.69L132.465 209.034C132.585 208.964 132.597 208.857 132.465 208.794L129.716 207.207C129.651 207.174 129.58 207.156 129.507 207.156C129.434 207.156 129.363 207.174 129.298 207.207L126.429 208.863C126.309 208.933 126.296 209.04 126.429 209.103L129.178 210.69C129.244 210.719 129.315 210.731 129.387 210.727C129.458 210.723 129.528 210.701 129.589 210.665L129.595 210.69ZM107.475 209.647L104.733 208.061C104.667 208.03 104.596 208.014 104.524 208.014C104.452 208.014 104.381 208.03 104.315 208.061L101.44 209.717C101.32 209.786 101.307 209.893 101.44 209.957L104.183 211.543C104.247 211.576 104.319 211.593 104.391 211.593C104.464 211.593 104.535 211.576 104.6 211.543L107.469 209.881C107.564 209.824 107.57 209.685 107.463 209.622L107.475 209.647ZM112.942 211.018L110.199 209.438C110.135 209.406 110.063 209.389 109.991 209.389C109.918 209.389 109.847 209.406 109.782 209.438L105.358 211.966C105.238 212.036 105.226 212.143 105.358 212.207L108.107 213.793C108.172 213.826 108.244 213.843 108.316 213.843C108.388 213.843 108.46 213.826 108.525 213.793L112.949 211.265C113.056 211.164 113.056 211.088 112.93 210.993L112.942 211.018ZM103.38 206.519L100.631 204.932C100.566 204.9 100.495 204.882 100.422 204.882C100.35 204.882 100.278 204.9 100.214 204.932L96.6809 206.974C96.5608 207.043 96.5482 207.151 96.6809 207.214L99.4301 208.8C99.4947 208.833 99.5662 208.85 99.6386 208.85C99.7111 208.85 99.7826 208.833 99.8472 208.8L103.38 206.759C103.462 206.664 103.475 206.557 103.367 206.493L103.38 206.519ZM106.085 204.951C106.15 204.984 106.221 205.001 106.294 205.001C106.366 205.001 106.438 204.984 106.502 204.951L109.371 203.295C109.498 203.226 109.504 203.118 109.371 203.055L106.629 201.469C106.564 201.436 106.492 201.419 106.42 201.419C106.348 201.419 106.276 201.436 106.211 201.469L103.342 203.125C103.216 203.201 103.203 203.308 103.342 203.365L106.085 204.951ZM117.973 212.649L115.224 211.063C115.159 211.03 115.088 211.013 115.015 211.013C114.943 211.013 114.871 211.03 114.807 211.063L109.264 214.248C109.144 214.318 109.131 214.425 109.264 214.488L112.013 216.074C112.078 216.108 112.149 216.126 112.222 216.126C112.294 216.126 112.366 216.108 112.43 216.074L117.948 212.914C118.055 212.794 118.068 212.687 117.96 212.624L117.973 212.649ZM119.907 216.062L117.164 214.475C117.099 214.443 117.028 214.426 116.955 214.426C116.883 214.426 116.812 214.443 116.747 214.475L113.214 216.517C113.088 216.586 113.081 216.694 113.214 216.757L115.957 218.343C116.022 218.376 116.093 218.393 116.165 218.393C116.238 218.393 116.309 218.376 116.374 218.343L119.907 216.302C120.008 216.207 120.008 216.1 119.894 216.037L119.907 216.062ZM137.281 186.946C137.345 186.978 137.417 186.995 137.489 186.995C137.562 186.995 137.633 186.978 137.698 186.946L140.567 185.283C140.687 185.214 140.7 185.106 140.567 185.043L137.818 183.457C137.753 183.423 137.682 183.406 137.609 183.406C137.537 183.406 137.465 183.423 137.401 183.457L134.544 185.094C134.424 185.163 134.411 185.271 134.544 185.334L137.281 186.946ZM128.856 191.761C128.921 191.794 128.992 191.811 129.065 191.811C129.137 191.811 129.208 191.794 129.273 191.761L132.142 190.106C132.269 190.036 132.275 189.929 132.142 189.865L129.4 188.279C129.335 188.246 129.263 188.229 129.191 188.229C129.118 188.229 129.047 188.246 128.982 188.279L126.113 189.935C125.987 190.004 125.974 190.112 126.113 190.175L128.856 191.761ZM110.25 202.505C110.315 202.538 110.386 202.555 110.458 202.555C110.531 202.555 110.602 202.538 110.667 202.505L113.536 200.85C113.656 200.774 113.669 200.666 113.536 200.609L110.793 199.023C110.729 198.99 110.657 198.973 110.585 198.973C110.512 198.973 110.441 198.99 110.376 199.023L107.501 200.679C107.381 200.748 107.368 200.856 107.501 200.919L110.25 202.505ZM133.052 189.341C133.117 189.374 133.189 189.391 133.261 189.391C133.334 189.391 133.405 189.374 133.47 189.341L136.339 187.685C136.459 187.609 136.472 187.502 136.339 187.439L133.596 185.859C133.531 185.826 133.46 185.809 133.387 185.809C133.315 185.809 133.244 185.826 133.179 185.859L130.303 187.514C130.183 187.584 130.171 187.691 130.303 187.755L133.052 189.341ZM124.66 194.188C124.725 194.219 124.796 194.235 124.868 194.235C124.94 194.235 125.011 194.219 125.077 194.188L127.946 192.532C128.072 192.463 128.085 192.356 127.946 192.292L125.203 190.706C125.138 190.673 125.067 190.656 124.994 190.656C124.922 190.656 124.851 190.673 124.786 190.706L121.917 192.368C121.79 192.438 121.784 192.545 121.917 192.608L124.66 194.188ZM121.936 216.207C121.871 216.174 121.8 216.157 121.727 216.157C121.655 216.157 121.583 216.174 121.518 216.207L117.094 218.735C116.974 218.811 116.962 218.918 117.094 218.982L119.837 220.562C119.902 220.594 119.973 220.611 120.046 220.611C120.118 220.611 120.19 220.594 120.254 220.562L124.678 218.034C124.799 217.964 124.811 217.857 124.678 217.793L121.936 216.207ZM118.643 197.664C118.708 197.695 118.779 197.711 118.851 197.711C118.924 197.711 118.995 197.695 119.06 197.664L121.929 196.008C122.049 195.939 122.062 195.832 121.929 195.768L119.18 194.182C119.115 194.149 119.044 194.132 118.972 194.132C118.899 194.132 118.828 194.149 118.763 194.182L115.894 195.844C115.774 195.914 115.761 196.021 115.894 196.084L118.643 197.664ZM114.446 200.085C114.511 200.118 114.582 200.135 114.655 200.135C114.727 200.135 114.799 200.118 114.864 200.085L117.733 198.423C117.853 198.353 117.866 198.246 117.733 198.183L114.984 196.596C114.919 196.564 114.847 196.547 114.775 196.547C114.703 196.547 114.631 196.564 114.566 196.596L111.697 198.252C111.577 198.322 111.564 198.429 111.697 198.492L114.446 200.085ZM199.665 171.329C199.601 171.295 199.529 171.277 199.457 171.277C199.384 171.277 199.313 171.295 199.248 171.329L192.182 175.405C192.056 175.475 192.05 175.582 192.182 175.645L194.925 177.232C194.99 177.264 195.061 177.282 195.134 177.282C195.206 177.282 195.278 177.264 195.342 177.232L202.402 173.168C202.528 173.098 202.535 172.991 202.402 172.928L199.665 171.329ZM190.388 176.688C190.323 176.655 190.251 176.638 190.179 176.638C190.107 176.638 190.035 176.655 189.97 176.688L187.101 178.344C186.981 178.414 186.968 178.521 187.101 178.584L189.85 180.171C189.915 180.203 189.986 180.22 190.059 180.22C190.131 180.22 190.203 180.203 190.267 180.171L193.137 178.508C193.257 178.439 193.269 178.331 193.137 178.268L190.388 176.688ZM133.76 208.244L136.636 206.588C136.756 206.519 136.769 206.411 136.636 206.348L133.912 204.768C133.847 204.735 133.776 204.718 133.703 204.718C133.631 204.718 133.56 204.735 133.495 204.768L130.626 206.43C130.506 206.5 130.493 206.607 130.626 206.67L133.375 208.25C133.438 208.281 133.508 208.296 133.578 208.295C133.648 208.294 133.717 208.277 133.779 208.244H133.76ZM182.001 181.529C181.936 181.497 181.865 181.48 181.792 181.48C181.72 181.48 181.648 181.497 181.584 181.529L178.708 183.191C178.588 183.261 178.575 183.368 178.708 183.432L181.451 185.018C181.516 185.049 181.587 185.065 181.66 185.065C181.732 185.065 181.803 185.049 181.868 185.018L184.737 183.362C184.864 183.293 184.87 183.185 184.737 183.122L182.001 181.529ZM203.862 168.889C203.797 168.857 203.726 168.84 203.653 168.84C203.581 168.84 203.509 168.857 203.445 168.889L200.569 170.551C200.449 170.621 200.436 170.728 200.569 170.792L203.318 172.372C203.383 172.404 203.454 172.421 203.527 172.421C203.599 172.421 203.671 172.404 203.735 172.372L206.605 170.716C206.725 170.646 206.737 170.539 206.605 170.476L203.862 168.889ZM210.814 168.055L204.146 164.2C204.082 164.166 204.01 164.148 203.938 164.148C203.865 164.148 203.793 164.166 203.729 164.2L200.853 165.856C200.733 165.925 200.721 166.033 200.853 166.096L207.508 170.008C207.573 170.041 207.645 170.058 207.717 170.058C207.789 170.058 207.861 170.041 207.926 170.008L210.795 168.352C210.915 168.245 210.928 168.112 210.82 168.074L210.814 168.055ZM166.334 190.561C166.269 190.527 166.198 190.509 166.125 190.509C166.052 190.509 165.981 190.527 165.916 190.561L162.384 192.596C162.264 192.665 162.251 192.773 162.384 192.836L165.133 194.422C165.197 194.455 165.269 194.472 165.341 194.472C165.414 194.472 165.485 194.455 165.55 194.422L169.083 192.381C169.203 192.311 169.216 192.204 169.083 192.141L166.334 190.561ZM176.932 184.443C176.868 184.41 176.796 184.393 176.724 184.393C176.651 184.393 176.58 184.41 176.515 184.443L172.091 186.971C171.971 187.04 171.958 187.148 172.091 187.211L174.84 188.797C174.905 188.831 174.976 188.849 175.049 188.849C175.122 188.849 175.193 188.831 175.257 188.797L179.681 186.269C179.802 186.2 179.814 186.092 179.681 186.029L176.932 184.443ZM156.62 196.173C156.555 196.14 156.484 196.123 156.411 196.123C156.339 196.123 156.267 196.14 156.203 196.173L132.578 209.824C132.458 209.9 132.446 210.007 132.578 210.07L135.328 211.65C135.392 211.683 135.464 211.7 135.536 211.7C135.609 211.7 135.68 211.683 135.745 211.65L159.369 198.012C159.495 197.942 159.502 197.835 159.369 197.772L156.62 196.173ZM131.668 210.576C131.604 210.543 131.532 210.526 131.46 210.526C131.387 210.526 131.316 210.543 131.251 210.576L127.718 212.617C127.592 212.687 127.579 212.794 127.718 212.858L130.461 214.444C130.526 214.477 130.597 214.494 130.67 214.494C130.742 214.494 130.814 214.477 130.878 214.444L134.411 212.403C134.531 212.333 134.544 212.226 134.411 212.162L131.668 210.576ZM161.48 193.392C161.415 193.359 161.344 193.342 161.271 193.342C161.199 193.342 161.127 193.359 161.063 193.392L157.53 195.433C157.41 195.503 157.397 195.61 157.53 195.673L160.279 197.26C160.344 197.293 160.415 197.31 160.488 197.31C160.56 197.31 160.632 197.293 160.696 197.26L164.229 195.218C164.349 195.149 164.362 195.042 164.229 194.978L161.48 193.392ZM126.815 213.407C126.75 213.375 126.679 213.358 126.606 213.358C126.534 213.358 126.462 213.375 126.398 213.407L122.865 215.449C122.745 215.518 122.732 215.626 122.865 215.689L125.614 217.275C125.678 217.308 125.75 217.325 125.822 217.325C125.895 217.325 125.966 217.308 126.031 217.275L129.564 215.234C129.684 215.164 129.697 215.057 129.564 214.994L126.815 213.407ZM171.2 187.773C171.135 187.743 171.064 187.727 170.991 187.727C170.919 187.727 170.848 187.743 170.783 187.773L167.25 189.809C167.124 189.884 167.117 189.992 167.25 190.055L169.993 191.635C170.058 191.668 170.129 191.685 170.201 191.685C170.274 191.685 170.345 191.668 170.41 191.635L173.918 189.6C174.044 189.53 174.05 189.423 173.918 189.36L171.2 187.773ZM186.21 179.109C186.145 179.076 186.074 179.059 186.001 179.059C185.929 179.059 185.858 179.076 185.793 179.109L182.924 180.752C182.804 180.822 182.791 180.929 182.924 180.992L185.673 182.578C185.737 182.611 185.809 182.628 185.881 182.628C185.954 182.628 186.025 182.611 186.09 182.578L188.959 180.923C189.079 180.853 189.092 180.746 188.959 180.682L186.21 179.109ZM195.608 172.536L198.483 170.88C198.604 170.811 198.616 170.703 198.483 170.64L195.741 169.054C195.676 169.021 195.604 169.004 195.532 169.004C195.46 169.004 195.388 169.021 195.323 169.054L192.454 170.709C192.328 170.785 192.321 170.893 192.454 170.95L195.216 172.536C195.277 172.565 195.344 172.58 195.412 172.58C195.48 172.58 195.547 172.565 195.608 172.536ZM178.487 173.364L181.363 171.702C181.483 171.632 181.495 171.525 181.363 171.462L178.613 169.875C178.549 169.841 178.477 169.824 178.405 169.824C178.332 169.824 178.261 169.841 178.196 169.875L175.327 171.531C175.201 171.601 175.194 171.708 175.327 171.771L178.07 173.358C178.133 173.393 178.204 173.414 178.276 173.417C178.349 173.42 178.421 173.406 178.487 173.377V173.364ZM167.345 188.867L175.738 184.026C175.858 183.95 175.87 183.842 175.738 183.779L172.989 182.199C172.924 182.167 172.852 182.149 172.78 182.149C172.708 182.149 172.636 182.167 172.571 182.199L164.21 187.072C164.084 187.148 164.077 187.255 164.21 187.312L166.953 188.898C167.017 188.922 167.085 188.932 167.152 188.926C167.22 188.921 167.286 188.901 167.345 188.867ZM191.001 174.963C191.064 174.996 191.135 175.013 191.206 175.013C191.277 175.013 191.348 174.996 191.411 174.963L194.287 173.307C194.407 173.238 194.42 173.13 194.287 173.067L191.538 171.481C191.473 171.448 191.402 171.431 191.329 171.431C191.257 171.431 191.185 171.448 191.121 171.481L188.264 173.168C188.144 173.238 188.131 173.345 188.264 173.408L191.001 174.963ZM187.493 172.681L190.362 171.025C190.482 170.956 190.495 170.849 190.362 170.785L187.632 169.224C187.567 169.192 187.496 169.174 187.423 169.174C187.351 169.174 187.28 169.192 187.215 169.224L184.346 170.88C184.226 170.95 184.213 171.057 184.346 171.12L187.095 172.707C187.157 172.736 187.225 172.752 187.294 172.752C187.363 172.752 187.431 172.736 187.493 172.707V172.681ZM163.148 191.262L166.024 189.606C166.144 189.537 166.157 189.429 166.024 189.366L163.281 187.78C163.216 187.747 163.145 187.73 163.072 187.73C163 187.73 162.929 187.747 162.864 187.78L159.995 189.442C159.868 189.512 159.862 189.619 159.995 189.682L162.738 191.268C162.799 191.305 162.869 191.325 162.941 191.329C163.012 191.332 163.083 191.318 163.148 191.287V191.262ZM181.723 180.316C181.787 180.349 181.859 180.366 181.931 180.366C182.004 180.366 182.075 180.349 182.14 180.316L185.009 178.654C185.136 178.584 185.142 178.477 185.009 178.414L182.266 176.827C182.202 176.793 182.131 176.775 182.058 176.775C181.985 176.775 181.913 176.793 181.849 176.827L178.974 178.483C178.854 178.553 178.841 178.66 178.974 178.723L181.723 180.316ZM142.172 203.378L145.042 201.715C145.168 201.646 145.174 201.538 145.042 201.475L142.299 199.889C142.233 199.858 142.162 199.842 142.09 199.842C142.018 199.842 141.947 199.858 141.882 199.889L139.038 201.608C138.911 201.678 138.905 201.785 139.038 201.848L141.78 203.434C141.844 203.458 141.912 203.468 141.98 203.462C142.048 203.457 142.113 203.437 142.172 203.403V203.378ZM146.369 200.951L149.238 199.295C149.364 199.225 149.371 199.118 149.238 199.055L146.552 197.494C146.487 197.461 146.416 197.444 146.343 197.444C146.271 197.444 146.2 197.461 146.135 197.494L143.259 199.156C143.139 199.225 143.127 199.333 143.259 199.396L146.008 200.982C146.066 201.006 146.127 201.018 146.189 201.017C146.251 201.016 146.312 201.002 146.369 200.976V200.951ZM137.976 205.798L140.851 204.142C140.971 204.073 140.984 203.965 140.851 203.902L138.108 202.316C138.044 202.283 137.972 202.266 137.9 202.266C137.827 202.266 137.756 202.283 137.691 202.316L134.822 203.972C134.696 204.041 134.689 204.149 134.822 204.212L137.565 205.798C137.627 205.834 137.696 205.855 137.767 205.859C137.839 205.864 137.91 205.851 137.976 205.823V205.798ZM154.768 196.135L157.637 194.479C157.757 194.41 157.77 194.296 157.637 194.239L154.888 192.653C154.823 192.62 154.752 192.603 154.68 192.603C154.607 192.603 154.536 192.62 154.471 192.653L151.608 194.321C151.488 194.391 151.475 194.498 151.608 194.561L154.357 196.147C154.422 196.177 154.493 196.192 154.564 196.189C154.635 196.187 154.705 196.169 154.768 196.135ZM150.572 198.555L153.441 196.9C153.561 196.83 153.574 196.723 153.441 196.659L150.692 195.073C150.627 195.04 150.556 195.023 150.483 195.023C150.411 195.023 150.339 195.04 150.274 195.073L147.405 196.729C147.285 196.805 147.272 196.912 147.405 196.975L150.154 198.555C150.218 198.587 150.289 198.604 150.36 198.604C150.431 198.604 150.501 198.587 150.565 198.555H150.572ZM158.958 193.714L161.834 192.052C161.954 191.983 161.966 191.875 161.834 191.812L159.104 190.232C159.038 190.201 158.967 190.185 158.895 190.185C158.823 190.185 158.752 190.201 158.686 190.232L155.817 191.888C155.697 191.957 155.684 192.065 155.817 192.128L158.566 193.714C158.627 193.743 158.692 193.758 158.759 193.758C158.826 193.758 158.892 193.743 158.952 193.714H158.958ZM181.856 160.016C181.92 160.049 181.992 160.066 182.064 160.066C182.137 160.066 182.208 160.049 182.273 160.016L185.142 158.354C185.268 158.284 185.275 158.177 185.142 158.114L184.415 157.69C184.35 157.659 184.279 157.643 184.207 157.643C184.134 157.643 184.063 157.659 183.998 157.69L181.122 159.346C181.002 159.416 180.99 159.523 181.122 159.586L181.856 160.016ZM161 173.219C161.064 173.251 161.136 173.268 161.208 173.268C161.281 173.268 161.352 173.251 161.417 173.219L164.286 171.556C164.406 171.487 164.419 171.379 164.286 171.316L161.537 169.736C161.472 169.703 161.401 169.686 161.328 169.686C161.256 169.686 161.184 169.703 161.12 169.736L158.25 171.392C158.13 171.462 158.118 171.569 158.25 171.632L161 173.219ZM169.386 168.371C169.451 168.404 169.522 168.421 169.595 168.421C169.667 168.421 169.739 168.404 169.803 168.371L172.673 166.715C172.799 166.646 172.805 166.538 172.673 166.475L169.936 164.876C169.871 164.843 169.8 164.826 169.727 164.826C169.655 164.826 169.584 164.843 169.519 164.876L166.65 166.532C166.523 166.608 166.517 166.715 166.65 166.778L169.386 168.371ZM155.874 176.176C155.939 176.209 156.01 176.226 156.083 176.226C156.155 176.226 156.226 176.209 156.291 176.176L159.16 174.514C159.28 174.445 159.293 174.337 159.16 174.274L156.418 172.688C156.352 172.657 156.281 172.641 156.209 172.641C156.137 172.641 156.066 172.657 156 172.688L153.125 174.343C153.005 174.413 152.992 174.52 153.125 174.584L155.874 176.176ZM165.19 170.798C165.254 170.832 165.325 170.85 165.398 170.85C165.471 170.85 165.543 170.832 165.607 170.798L168.482 169.142C168.602 169.073 168.615 168.965 168.482 168.902L165.74 167.316C165.675 167.283 165.603 167.266 165.531 167.266C165.458 167.266 165.387 167.283 165.322 167.316L162.453 168.978C162.327 169.047 162.32 169.155 162.453 169.218L165.19 170.798ZM147.494 181.017C147.558 181.05 147.63 181.067 147.702 181.067C147.775 181.067 147.846 181.05 147.911 181.017L150.78 179.362C150.906 179.292 150.919 179.185 150.78 179.121L148.037 177.535C147.973 177.502 147.901 177.485 147.829 177.485C147.756 177.485 147.685 177.502 147.62 177.535L144.751 179.191C144.624 179.267 144.618 179.374 144.751 179.437L147.494 181.017ZM151.69 178.597C151.755 178.63 151.826 178.647 151.899 178.647C151.971 178.647 152.043 178.63 152.107 178.597L154.977 176.941C155.103 176.872 155.109 176.764 154.977 176.701L152.24 175.102C152.175 175.069 152.104 175.052 152.031 175.052C151.959 175.052 151.888 175.069 151.823 175.102L148.954 176.758C148.827 176.827 148.815 176.935 148.954 176.998L151.69 178.597ZM173.469 164.857C173.534 164.89 173.605 164.907 173.677 164.907C173.75 164.907 173.821 164.89 173.886 164.857L176.762 163.201C176.882 163.132 176.894 163.024 176.762 162.961L176.028 162.538C175.964 162.505 175.892 162.488 175.82 162.488C175.747 162.488 175.676 162.505 175.611 162.538L172.742 164.2C172.616 164.269 172.609 164.377 172.742 164.44L173.469 164.857ZM186.058 157.596C186.123 157.628 186.195 157.645 186.267 157.645C186.339 157.645 186.411 157.628 186.475 157.596L189.345 155.94C189.465 155.87 189.477 155.763 189.345 155.7L188.612 155.276C188.547 155.242 188.476 155.225 188.403 155.225C188.33 155.225 188.259 155.242 188.194 155.276L185.325 156.932C185.205 157.001 185.192 157.109 185.325 157.172L186.058 157.596ZM191.828 160.926C191.893 160.96 191.964 160.978 192.037 160.978C192.11 160.978 192.181 160.96 192.246 160.926L195.115 159.27C195.235 159.201 195.248 159.093 195.115 159.03L192.366 157.444C192.301 157.411 192.23 157.394 192.157 157.394C192.085 157.394 192.013 157.411 191.949 157.444L189.079 159.106C188.959 159.176 188.947 159.283 189.079 159.346L191.828 160.926ZM199.817 170.128L202.686 168.472C202.813 168.396 202.819 168.289 202.686 168.232L199.943 166.646C199.879 166.613 199.807 166.596 199.735 166.596C199.662 166.596 199.591 166.613 199.526 166.646L196.657 168.302C196.531 168.371 196.524 168.479 196.657 168.542L199.4 170.128C199.463 170.159 199.532 170.175 199.602 170.175C199.672 170.175 199.741 170.159 199.804 170.128H199.817ZM177.697 162.437C177.762 162.469 177.833 162.486 177.906 162.486C177.978 162.486 178.049 162.469 178.114 162.437L180.983 160.781C181.11 160.711 181.116 160.598 180.983 160.541L180.257 160.117C180.192 160.084 180.12 160.067 180.048 160.067C179.976 160.067 179.904 160.084 179.839 160.117L176.945 161.792C176.825 161.862 176.812 161.969 176.945 162.032L177.697 162.437ZM143.329 183.444C143.393 183.479 143.465 183.497 143.537 183.497C143.61 183.497 143.682 183.479 143.746 183.444L146.622 181.788C146.742 181.719 146.754 181.612 146.622 181.548L143.872 179.962C143.808 179.928 143.736 179.911 143.664 179.911C143.591 179.911 143.52 179.928 143.455 179.962L140.586 181.618C140.466 181.687 140.453 181.795 140.586 181.858L143.329 183.444Z" fill="#455A64"/>
<path d="M155.305 207.315L155.931 207.675L172.508 217.25L201.991 200.224L202.604 199.876L185.401 189.948L155.305 207.315Z" fill="#263238"/>
<path d="M201.612 200.445L185.401 191.092L156.304 207.896L172.508 217.25L201.612 200.445Z" fill="#37474F"/>
<path d="M117.322 35.8976C112.14 32.5038 105.459 33.1105 101.844 35.847C96.7883 39.6896 95.0061 43.9177 94.096 52.279C92.832 64.0595 91.5048 67.447 90.1081 70.1204C89.5126 71.2949 88.6898 72.3394 87.6873 73.1932C86.6848 74.0471 85.5227 74.6933 84.2684 75.0942C85.2685 75.7058 86.4083 76.0517 87.5796 76.0993C88.7508 76.1468 89.9149 75.8944 90.9613 75.366C89.7731 81.054 88.1173 85.8256 89.5898 91.8359C90.5821 95.8807 92.693 100.463 95.8087 103.364C98.4631 105.835 102.261 106.587 105.453 107.984C103.298 103.364 102.141 99.0028 103.633 93.8078C105.276 88.0755 109.119 83.1965 110.819 77.42C113.182 69.4315 115.875 61.1523 116.551 52.8162C117.113 45.7884 117.379 40.7261 117.322 35.8976Z" fill="#263238"/>
<path d="M114.737 36.953C113.909 36.1757 110.25 36.6813 108.038 39.3167C105.826 41.9522 104.511 45.7821 107.197 47.8361C109.713 49.7637 119.49 39.5063 114.737 36.953Z" fill="#F48284"/>
<path d="M144.751 48.5186C146.571 47.8487 147.348 45.504 146.805 43.6396C146.261 41.7752 144.738 40.3595 143.114 39.2914C139.396 36.891 134.958 35.8587 130.562 36.3716C126.485 35.074 122.141 34.8562 117.954 35.7396C115.23 36.37 112.779 37.8553 110.96 39.9783C109.14 42.1013 108.048 44.7507 107.842 47.539C101.351 49.0685 98.5137 57.019 102.521 65.551C105.434 71.7194 112.001 75.9854 112.816 79.0569L137.426 59.9326C138.387 61.4304 141.357 61.4999 142.57 60.9058C143.784 60.3118 144.542 58.1124 143.733 57.0254C144.862 57.1595 145.998 56.8396 146.891 56.1362C147.784 55.4327 148.361 54.4033 148.495 53.2744C148.629 52.1455 148.31 51.0096 147.606 50.1165C146.903 49.2235 145.873 48.6464 144.744 48.5123L144.751 48.5186Z" fill="#263238"/>
<path d="M117.954 35.7459C115.274 36.4556 112.882 37.9819 111.109 40.113C110.226 41.1568 109.517 42.3372 109.011 43.608C108.517 44.8758 108.223 46.2126 108.139 47.5706V47.7792L107.937 47.8298C106.41 48.1869 105.015 48.9666 103.911 50.0797C102.82 51.2047 102.017 52.5774 101.573 54.0802C100.745 57.1479 100.893 60.3973 101.996 63.377C103.074 66.3872 104.751 69.1477 106.926 71.4918C107.981 72.7053 109.093 73.8682 110.161 75.0753C110.699 75.7073 111.236 76.2824 111.716 76.9713C112.223 77.6036 112.604 78.3263 112.841 79.1011C112.56 78.3484 112.142 77.6542 111.609 77.0534C111.1 76.4327 110.56 75.8379 109.991 75.2712C108.86 74.121 107.709 72.9897 106.622 71.7952C105.517 70.6095 104.503 69.3418 103.589 68.0032C102.681 66.6411 101.954 65.1667 101.427 63.6171C100.859 62.0605 100.518 60.43 100.416 58.776C100.282 57.1274 100.457 55.4682 100.934 53.8843C101.42 52.2866 102.288 50.8312 103.462 49.6436C104.655 48.4637 106.155 47.6425 107.791 47.2736L107.57 47.5327C107.791 44.6937 108.937 42.0053 110.831 39.8792C111.767 38.8326 112.861 37.9391 114.074 37.2311C115.273 36.518 116.585 36.0157 117.954 35.7459Z" fill="black"/>
<path d="M208.14 88.9919C209.493 87.8417 209.739 87.5446 211.56 86.0847C212.912 85.004 213.993 84.1255 214.34 83.4935C215.023 82.2295 214.385 81.0098 213.816 81.212C212.672 81.6165 211.319 82.5834 208.684 84.372C205.783 86.3628 203.735 88.3283 203.584 88.0123C204.519 86.7137 205.552 85.4883 206.674 84.3467C210.226 80.5105 210.921 79.8153 211.572 78.5829C212.95 76.0169 211.016 75.5935 210.169 76.1244C209.202 76.7564 208.153 77.8877 205.612 80.4094C202.857 83.1459 200.455 85.933 200.234 85.7687C200.013 85.6044 203.83 81.4269 206.118 78.368C208.235 75.5303 206.857 74.3295 206.251 74.2347C205.644 74.1399 204.867 74.9615 203.843 76.0612C201.991 78.0773 196.606 84.688 195.481 85.952C194.356 87.216 193.503 87.671 193.358 85.6297C193.219 83.7337 193.314 81.6734 192.479 80.3525C191.083 78.1468 189.541 78.6903 189.534 80.1629C189.534 82.2485 189.035 84.5869 188.668 87.9175C188.473 89.6555 188.504 91.7095 188.466 92.9356C188.251 97.1637 184.706 99.3504 181.754 101.385C178.803 103.42 170.764 108.002 170.764 108.002C170.764 108.002 155.773 92.5627 151.399 88.7833C146.204 84.2835 144.719 83.9675 137.382 84.0244L147.759 110.714C147.759 110.714 161.865 123.765 166.656 126.552C171.446 129.339 173.393 127.816 179.214 122.652C183.682 118.69 191.038 109.608 192.814 107.592C194.59 105.576 195.342 104.274 197.422 103.515C200.221 102.491 201.662 101.082 203.527 98.9459C204.418 97.9284 205.89 95.8807 207.249 94.5219C209.086 92.7787 211.025 91.1473 213.057 89.6366C214.283 88.6064 214.473 86.4766 212.754 87.1591C209.493 88.4231 206.225 91.1786 206.118 90.9953C206.011 90.8121 207.224 89.7756 208.14 88.9919Z" fill="#FFBDA7"/>
<path d="M194.496 89.112C195.993 91.3177 196.328 96.5317 194.868 99.6348C197.883 96.696 197.567 91.3809 194.496 89.112Z" fill="#F0997A"/>
<path d="M170.764 108.028C168.28 109.652 165.316 114.348 166.163 119.176C165.082 115.612 164.147 111.162 169.595 106.726L170.764 108.028Z" fill="#F0997A"/>
<path d="M99.152 91.8549L104.935 89.5418C104.935 89.5418 113.562 87.3045 120.735 85.7498C128.319 84.7954 134.835 84.0813 134.835 84.0813L137.394 84.037C137.394 84.037 143.082 89.0425 147.247 93.6624C151.412 98.2823 155.071 102.144 155.305 107.977C155.615 115.858 150.553 118.721 150.553 118.721L150.862 128.764L157.441 147.376L93.8622 184.07C95.7961 161.413 100.814 157.678 103.652 141.972C103.108 133.756 99.0193 122.482 98.3241 116.756C95.8972 96.9804 99.152 91.8549 99.152 91.8549Z" fill="#F48284"/>
<path d="M112.588 81.983C112.828 79.2086 113.22 73.6912 113.22 73.6912C112.531 74.6076 108.796 75.8779 106.268 72.2881C103.323 68.1485 103.791 65.1845 105.845 63.2C108.183 60.9374 112.279 61.5189 113.985 65.096C115.053 67.624 117.145 64.641 115.04 60.672C114.339 53.6821 123.256 58.3146 128.812 43.7407C134.418 43.4247 137.799 45.0047 140.523 49.6689C141.787 51.7797 143.259 54.8197 142.956 63.6234C142.564 74.8351 140.877 78.3617 136.952 80.2387C135.144 81.1045 133.286 81.4332 129.804 81.1741L129.772 82.2485C129.767 82.4976 129.78 82.7469 129.81 82.9942C129.827 83.3046 129.957 83.5979 130.176 83.8183C130.396 84.0386 130.688 84.1705 130.998 84.1887C132.282 84.239 133.568 84.203 134.847 84.0813C134.847 84.0813 137.704 91.2608 128.224 93.3022C120.253 95.0008 111.936 93.6597 104.903 89.5417C106.314 88.8183 107.672 87.9968 108.967 87.0833C111.893 84.9661 112.424 83.721 112.588 81.983Z" fill="#FFBDA7"/>
<path d="M108.954 71.7573C108.964 72.0267 109.054 72.2872 109.212 72.5057C109.37 72.7243 109.589 72.8911 109.842 72.9853C110.095 73.0794 110.37 73.0966 110.632 73.0347C110.894 72.9727 111.133 72.8345 111.317 72.6373C111.501 72.4402 111.622 72.1929 111.666 71.9268C111.709 71.6607 111.673 71.3877 111.562 71.1421C111.45 70.8965 111.269 70.6894 111.04 70.547C110.811 70.4045 110.545 70.333 110.275 70.3416C110.095 70.3465 109.918 70.3871 109.753 70.4612C109.589 70.5352 109.441 70.6412 109.318 70.7729C109.195 70.9047 109.1 71.0595 109.037 71.2285C108.975 71.3975 108.947 71.5773 108.954 71.7573Z" fill="#FAFAFA"/>
<path d="M126.859 70.2594L132.951 72.1554C132.842 72.5616 132.653 72.9419 132.395 73.2739C132.136 73.606 131.814 73.8831 131.448 74.0892C131.081 74.2952 130.677 74.4259 130.259 74.4737C129.841 74.5215 129.418 74.4854 129.014 74.3674C128.193 74.0945 127.51 73.5141 127.108 72.748C126.706 71.982 126.617 71.09 126.859 70.2594Z" fill="#B16668"/>
<path d="M127.257 71.6625C128.068 71.6358 128.863 71.8916 129.506 72.3861C130.149 72.8806 130.601 73.5832 130.784 74.3738C130.207 74.5474 129.591 74.5474 129.014 74.3738C128.434 74.1836 127.918 73.8358 127.524 73.3693C127.13 72.9028 126.873 72.3359 126.783 71.732C126.939 71.6991 127.098 71.6759 127.257 71.6625Z" fill="#F28F8F"/>
<path d="M140.599 55.0282L136.762 54.1118C136.81 53.8594 136.908 53.6193 137.052 53.4061C137.195 53.1928 137.38 53.011 137.596 52.8715C137.812 52.732 138.053 52.6378 138.307 52.5946C138.56 52.5515 138.819 52.5602 139.069 52.6203C139.584 52.7496 140.029 53.0714 140.314 53.5194C140.598 53.9673 140.7 54.5074 140.599 55.0282Z" fill="#263238"/>
<path d="M121.904 54.8323L125.639 53.4229C125.562 53.1712 125.433 52.9383 125.261 52.739C125.089 52.5397 124.878 52.3785 124.64 52.2655C124.402 52.1525 124.143 52.0904 123.88 52.0829C123.617 52.0754 123.355 52.1228 123.111 52.2221C122.615 52.4217 122.214 52.8029 121.99 53.2879C121.766 53.773 121.735 54.3253 121.904 54.8323Z" fill="#263238"/>
<path d="M136.832 60.0021C136.81 60.4339 136.953 60.8578 137.232 61.1878C137.512 61.5177 137.906 61.7287 138.336 61.778C138.548 61.8006 138.762 61.7802 138.966 61.7182C139.17 61.6561 139.359 61.5536 139.523 61.4167C139.686 61.2799 139.82 61.1115 139.917 60.9216C140.014 60.7318 140.072 60.5244 140.087 60.3117C140.11 59.8756 139.964 59.4474 139.679 59.1165C139.394 58.7856 138.992 58.5776 138.557 58.5358C138.347 58.5168 138.136 58.5398 137.935 58.6035C137.734 58.6673 137.547 58.7704 137.387 58.9069C137.226 59.0434 137.094 59.2106 136.999 59.3986C136.904 59.5866 136.847 59.7918 136.832 60.0021Z" fill="#263238"/>
<path d="M123.465 60.0842C123.438 60.5208 123.582 60.9506 123.867 61.2831C124.151 61.6155 124.553 61.8247 124.988 61.8665C125.2 61.89 125.415 61.8703 125.619 61.8086C125.823 61.7469 126.013 61.6444 126.177 61.5074C126.34 61.3704 126.474 61.2016 126.571 61.0113C126.668 60.821 126.725 60.6132 126.739 60.4002C126.765 59.9644 126.621 59.5353 126.337 59.2039C126.053 58.8724 125.65 58.6646 125.216 58.6243C125.004 58.6017 124.79 58.6218 124.587 58.6835C124.383 58.7452 124.194 58.8472 124.031 58.9834C123.868 59.1196 123.733 59.2872 123.636 59.4763C123.539 59.6654 123.481 59.8722 123.465 60.0842Z" fill="#263238"/>
<path d="M129.779 81.1804C126.149 80.8368 122.61 79.8435 119.332 78.2479C117.532 77.2122 116.107 75.6323 115.262 73.7354C115.303 74.8276 115.574 75.8987 116.058 76.8789C116.541 77.859 117.226 78.7261 118.068 79.4234C121.228 82.0778 129.785 82.9753 129.785 82.9753C129.749 82.7285 129.736 82.4787 129.747 82.2295L129.779 81.1804Z" fill="#F0997A"/>
<path d="M125.26 120.08C128.344 117.457 129.911 116.421 131.397 115.902C132.882 115.384 138.033 112.844 140.03 112.212C141.294 111.807 141.926 113.823 140.396 115.334C139.202 116.497 136.01 118.127 134.62 119.006C133.229 119.884 130.619 123.499 130.619 123.499L125.26 120.08Z" fill="#F0997A"/>
<path d="M118.264 143.11C108.152 148.849 99.3037 155.997 89.5014 157.469C79.9455 158.897 79.6485 150.985 79.8191 145.088C80.034 137.643 84.2052 114.297 86.373 106.536C88.6734 98.276 90.165 95.2298 99.1204 91.8675C106.515 96.715 104.808 112.724 103.235 118.835C101.56 125.212 98.8486 137.125 98.8486 137.125C98.8486 137.125 110.503 133.453 113.302 131.974C116.102 130.495 120.792 124.201 122.643 122.185C125.171 119.442 126.518 119.701 127.889 119.821C132.395 120.213 133.4 120.522 134.38 121.085C134.672 121.26 134.914 121.506 135.086 121.799C135.257 122.093 135.351 122.426 135.359 122.766C136.554 122.842 138.323 122.69 138.677 124.624C138.809 125.131 138.867 125.655 138.848 126.179C139.151 126.212 139.433 126.351 139.644 126.571C140.706 127.651 139.259 131.715 138.248 132.745C137.533 133.472 136.465 133.624 135.043 133.523C133.83 133.434 134.31 132.176 134.31 132.176L132.635 132.385C129.172 135.191 129.001 139.337 124.274 140.765C122.164 141.24 120.138 142.031 118.264 143.11Z" fill="#FFBDA7"/>
<path d="M135.359 122.734L129.994 121.976H135.176C135.285 122.215 135.348 122.472 135.359 122.734Z" fill="#F0997A"/>
<path d="M138.848 126.147L132.699 125.743L138.81 125.439C138.849 125.673 138.861 125.911 138.848 126.147Z" fill="#F0997A"/>
<path d="M138.21 128.884C138.033 129.208 137.765 129.474 137.439 129.648C137.118 129.836 136.774 129.979 136.415 130.072L136.491 130.009C136.352 130.337 136.194 130.641 136.042 130.982L135.903 130.83C136.07 130.788 136.245 130.782 136.415 130.813C136.585 130.843 136.746 130.91 136.889 131.007C137.155 131.197 137.358 131.464 137.47 131.772C137.313 131.514 137.096 131.297 136.838 131.14C136.581 131.007 136.285 130.972 136.004 131.039L135.77 131.102L135.865 130.881C136.01 130.552 136.156 130.249 136.32 129.908V129.857H136.37C136.711 129.773 137.044 129.656 137.363 129.509C137.691 129.371 137.981 129.157 138.21 128.884Z" fill="#F0997A"/>
<path d="M136.642 129.775C135.916 129.915 135.181 130.012 134.443 130.066C134.342 130.531 134.104 130.956 133.76 131.285C133.408 131.664 133.032 132.021 132.635 132.353L134.31 132.145C134.31 132.145 134.677 131.368 136.168 130.982L136.642 129.775Z" fill="#F0997A"/>
<path d="M99.3542 134.907L98.8486 137.112C94.5447 138.515 90.0006 141.865 89.1095 144.324C89.672 140.475 91.7829 137.447 99.3542 134.907Z" fill="#F0997A"/>
<path d="M144.498 55.8435L143.866 55.7614C141.749 55.5402 138.93 55.4896 137.23 56.0521C135.031 56.7852 134.272 57.5942 132.989 57.6258C131.599 57.6258 130.682 56.8484 128.091 56.1469C125.98 55.5907 122.403 55.6918 119.559 55.9889L118.656 56.09C118.346 56.1739 118.074 56.3601 117.883 56.6182C117.693 56.8764 117.595 57.1914 117.606 57.512C117.709 58.137 118.005 58.714 118.453 59.1615C118.59 59.3655 118.688 59.5925 118.744 59.8314C119.035 60.9943 119.205 63.2632 119.799 64.5146C120.081 65.1378 120.475 65.7035 120.962 66.183C121.146 66.3585 121.345 66.5171 121.556 66.657L121.904 66.8719C122.227 67.0475 122.568 67.1874 122.922 67.289L123.092 67.3333L123.358 67.3965L123.642 67.4407C123.935 67.4888 124.23 67.5163 124.527 67.5229H124.906H125.374C128.932 67.289 130.322 65.4878 131.1 63.7309C131.877 61.9739 131.561 59.6545 133.065 59.6166H133.204C133.248 59.61 133.293 59.61 133.337 59.6166C134.443 59.8441 134.418 61.9739 135.189 63.497C135.484 64.102 135.869 64.6582 136.333 65.1466C136.416 65.2356 136.505 65.32 136.598 65.3994L136.737 65.5131L136.882 65.6269L137.015 65.7217L137.16 65.8165L137.274 65.8797L137.35 65.9239C137.755 66.1465 138.192 66.3043 138.646 66.3916H138.759C139.262 66.4781 139.774 66.4993 140.283 66.4548C141.214 66.4422 142.113 66.115 142.835 65.5264C143.557 64.9378 144.058 64.1223 144.258 63.2126C144.593 62.075 144.574 60.1032 144.688 59.073C144.707 58.8833 144.772 58.701 144.877 58.5422C145.166 58.1029 145.322 57.5892 145.326 57.0633C145.288 56.4566 144.858 55.8878 144.498 55.8435ZM130.177 62.1635C130.024 63.0632 129.641 63.9079 129.065 64.6157C128.583 65.14 127.997 65.5569 127.343 65.839C126.69 66.1211 125.984 66.262 125.273 66.2526C124.546 66.3404 123.81 66.238 123.135 65.9555C122.46 65.673 121.871 65.22 121.424 64.641C121.379 64.5841 121.342 64.5209 121.304 64.464C121.261 64.4101 121.223 64.3531 121.19 64.2934C121.154 64.2414 121.122 64.1864 121.095 64.129L121.013 63.9837L120.956 63.8636C120.937 63.8291 120.92 63.7931 120.905 63.7562C120.905 63.6993 120.849 63.6424 120.823 63.5792C120.754 63.4022 120.691 63.2316 120.634 63.061C120.602 62.9598 120.57 62.8524 120.545 62.7513C120.52 62.6502 120.45 62.4037 120.419 62.252V62.1572C120.419 62.1572 120.419 62.1003 120.419 62.0687C120.147 60.8426 119.831 58.4474 120.469 57.9038C121.108 57.3603 122.732 56.7915 125.348 57.0064H125.626C126.019 57.0454 126.41 57.1066 126.796 57.1897C126.947 57.1897 127.099 57.2529 127.251 57.2908C127.633 57.3791 128.009 57.4932 128.376 57.6321L128.723 57.7648C128.856 57.8154 128.976 57.8786 129.096 57.9354L129.172 57.9734L129.305 58.0429C129.598 58.1835 129.858 58.3837 130.069 58.6306C130.512 59.3132 130.417 60.8237 130.177 62.1446V62.1635ZM143.695 61.1207C143.607 61.9802 143.411 63.8699 141.932 64.7926C141.435 65.0959 140.87 65.2697 140.289 65.2982C139.609 65.3992 138.914 65.3098 138.281 65.0398C137.649 64.7698 137.103 64.3299 136.705 63.7688L136.636 63.6677C136.608 63.6297 136.582 63.5895 136.56 63.5476C136.543 63.5281 136.528 63.5069 136.516 63.4844L136.415 63.3074L136.307 63.0989C136.307 63.061 136.276 63.0294 136.263 62.9914C136.261 62.9726 136.261 62.9534 136.263 62.9346C136.248 62.9084 136.235 62.8809 136.225 62.8524V62.7829C136.116 62.5068 136.025 62.2239 135.953 61.936C135.637 60.672 135.429 59.2184 135.827 58.5169C136.225 57.8154 137.862 57.057 139.429 56.8294C139.79 56.7789 140.125 56.7473 140.441 56.7346H141.161H141.325L141.597 56.7662C141.767 56.7849 141.936 56.8144 142.103 56.8547H142.216H142.248H142.33H142.45L142.602 56.9053L142.842 57.0001H142.886C143.088 57.0886 143.275 57.2057 143.443 57.3477C143.866 57.8975 143.803 60.04 143.695 61.1018V61.1207Z" fill="#37474F"/>
<path d="M118.188 56.6461L110.086 61.936C110.953 62.0617 111.766 62.4372 112.424 63.0167L118.643 58.7823L118.188 56.6461Z" fill="#37474F"/>
<path d="M137.944 66.6381L133.015 69.1092L131.751 61.2724C131.77 60.9766 131.849 60.6878 131.984 60.4238C132.119 60.1597 132.306 59.9259 132.534 59.7366L137.944 66.6381Z" fill="#F0997A"/>
<path opacity="0.9" d="M79.8571 189.859L79.7875 189.828L77.8915 188.709C77.6361 188.562 77.4175 188.358 77.2522 188.114C77.0868 187.87 76.9792 187.591 76.9372 187.3C76.9372 187.211 76.9372 187.123 76.9372 187.034V183.836C76.9597 183.131 77.1786 182.446 77.5692 181.858L79.8191 183.154C79.3898 183.973 79.1848 184.891 79.2251 185.814V188.759C79.2287 188.913 79.2587 189.065 79.3135 189.208C79.4143 189.481 79.6063 189.711 79.8571 189.859Z" fill="#263238"/>
<path opacity="0.6" d="M173.981 129.08C173.779 129.003 173.562 128.977 173.348 129.005C173.134 129.032 172.93 129.112 172.755 129.238L81.0515 182.016C80.8737 182.122 80.7046 182.243 80.5459 182.376C80.4372 182.465 80.3358 182.562 80.2426 182.667C80.0852 182.826 79.9492 183.004 79.8381 183.198L77.5502 181.883C77.6643 181.7 77.7933 181.527 77.9358 181.365L78.0811 181.207L78.2328 181.062L78.3908 180.929C78.4948 180.845 78.6046 180.769 78.7194 180.701L170.429 127.917C170.618 127.778 170.841 127.695 171.074 127.676C171.307 127.657 171.541 127.703 171.75 127.809C172.085 128.012 173.589 128.871 173.981 129.08Z" fill="#455A64"/>
<path d="M86.1202 184.152V181.909C86.1202 181.744 86.2213 181.574 86.3224 181.574H88.3006C88.427 181.574 88.427 181.858 88.3006 182.01L86.3224 184.266C86.2213 184.361 86.1202 184.31 86.1202 184.152Z" fill="white"/>
<path d="M90.7211 181.491V179.248C90.7211 179.09 90.8223 178.919 90.9234 178.919H92.9015C93.0279 178.919 93.0279 179.204 92.9015 179.349L90.936 181.593C90.8222 181.706 90.7211 181.656 90.7211 181.491Z" fill="white"/>
<path d="M93.148 180.322C93.0659 180.373 92.9963 180.322 92.9963 180.208V177.908C92.9978 177.851 93.0122 177.795 93.0385 177.745C93.0648 177.695 93.1023 177.651 93.148 177.617C93.2302 177.573 93.2997 177.617 93.2997 177.731V180.038C93.2982 180.094 93.2838 180.149 93.2574 180.198C93.2311 180.247 93.1936 180.29 93.148 180.322Z" fill="white"/>
<path d="M83.7944 185.492V183.28C83.7944 183.122 83.6933 183.071 83.5922 183.179L81.6203 185.441C81.4876 185.593 81.4876 185.878 81.6203 185.878H83.5922C83.6933 185.808 83.7944 185.65 83.7944 185.492Z" fill="white"/>
<path d="M81.3675 187.123C81.4132 187.09 81.4506 187.048 81.477 186.998C81.5033 186.949 81.5177 186.894 81.5192 186.838V184.544C81.5192 184.437 81.4497 184.386 81.3675 184.43C81.3218 184.464 81.2843 184.508 81.258 184.558C81.2317 184.608 81.2173 184.664 81.2159 184.721V187.021C81.2159 187.123 81.2854 187.173 81.3675 187.123Z" fill="white"/>
<path d="M170.138 134.281C170.092 134.279 170.048 134.26 170.015 134.227C169.982 134.195 169.963 134.151 169.961 134.104V133.08C169.962 133.05 169.971 133.02 169.986 132.993C170.002 132.967 170.024 132.944 170.05 132.929L170.871 132.455C170.912 132.431 170.959 132.425 171.004 132.437C171.049 132.449 171.088 132.478 171.112 132.518C171.123 132.537 171.13 132.559 171.133 132.581C171.136 132.603 171.135 132.626 171.129 132.648C171.123 132.67 171.113 132.69 171.099 132.708C171.085 132.726 171.068 132.74 171.048 132.752L170.309 133.181V134.104C170.309 134.15 170.291 134.194 170.259 134.227C170.227 134.26 170.184 134.279 170.138 134.281Z" fill="white"/>
<path d="M172.376 132.985C172.33 132.985 172.286 132.968 172.253 132.936C172.22 132.904 172.2 132.861 172.199 132.815V132.088L171.642 132.41C171.602 132.433 171.554 132.44 171.509 132.428C171.464 132.416 171.426 132.387 171.402 132.347C171.391 132.328 171.384 132.306 171.381 132.284C171.378 132.261 171.379 132.239 171.385 132.217C171.391 132.195 171.401 132.175 171.415 132.157C171.429 132.139 171.446 132.124 171.465 132.113L172.287 131.639C172.314 131.624 172.344 131.616 172.376 131.616C172.407 131.616 172.437 131.624 172.464 131.639C172.489 131.654 172.51 131.675 172.525 131.701C172.539 131.726 172.547 131.755 172.546 131.785V132.815C172.546 132.86 172.528 132.903 172.496 132.935C172.464 132.967 172.421 132.985 172.376 132.985Z" fill="white"/>
<path d="M171.554 135.4C171.524 135.4 171.494 135.393 171.467 135.378C171.441 135.364 171.418 135.343 171.402 135.318C171.379 135.277 171.373 135.229 171.385 135.184C171.396 135.14 171.425 135.101 171.465 135.077L172.199 134.654V133.725C172.2 133.679 172.22 133.636 172.253 133.604C172.286 133.572 172.33 133.554 172.376 133.554C172.421 133.554 172.464 133.572 172.496 133.604C172.528 133.636 172.546 133.68 172.546 133.725V134.755C172.547 134.785 172.539 134.815 172.525 134.842C172.51 134.868 172.49 134.891 172.464 134.907L171.642 135.381L171.554 135.4Z" fill="white"/>
<path d="M170.138 136.221C170.109 136.228 170.079 136.228 170.05 136.221C170.024 136.205 170.002 136.183 169.986 136.157C169.971 136.13 169.962 136.1 169.961 136.07V135.046C169.963 134.999 169.982 134.955 170.015 134.922C170.048 134.89 170.092 134.87 170.138 134.869C170.184 134.87 170.227 134.89 170.259 134.923C170.291 134.956 170.309 135 170.309 135.046V135.766L170.871 135.444C170.891 135.429 170.914 135.418 170.939 135.412C170.963 135.407 170.989 135.406 171.013 135.411C171.038 135.416 171.061 135.426 171.081 135.44C171.102 135.455 171.119 135.474 171.132 135.495C171.144 135.517 171.152 135.541 171.155 135.566C171.157 135.591 171.155 135.616 171.147 135.64C171.139 135.664 171.126 135.686 171.109 135.704C171.092 135.723 171.071 135.737 171.048 135.747L170.227 136.221C170.198 136.227 170.167 136.227 170.138 136.221Z" fill="white"/>
<path d="M113.922 167.36V166.216L96.5482 176.252C96.3839 176.345 96.2438 176.475 96.1394 176.632C96.0351 176.789 95.9694 176.969 95.9478 177.156C95.9478 177.466 96.2132 177.56 96.5482 177.364L113.922 167.36Z" fill="#F48284"/>
<path opacity="0.5" d="M163.167 137.858C163.085 137.873 163.005 137.903 162.933 137.947L113.922 166.216V167.335L162.933 139.04C163.106 138.939 163.252 138.801 163.363 138.636C163.413 138.555 163.455 138.471 163.49 138.383C163.52 138.304 163.535 138.22 163.534 138.136C163.536 138.091 163.527 138.046 163.508 138.005C163.489 137.963 163.46 137.928 163.424 137.9C163.388 137.873 163.346 137.855 163.301 137.847C163.256 137.84 163.21 137.844 163.167 137.858Z" fill="white"/>
<path d="M114.794 166.374C114.786 166.699 114.703 167.019 114.552 167.307C114.401 167.595 114.185 167.845 113.922 168.036C113.442 168.308 113.056 168.036 113.056 167.373C113.061 167.048 113.141 166.729 113.292 166.442C113.442 166.154 113.658 165.906 113.922 165.717C114.396 165.439 114.794 165.729 114.794 166.374Z" fill="#F48284"/>
<path opacity="0.5" d="M114.794 166.374C114.786 166.699 114.703 167.019 114.552 167.307C114.401 167.595 114.185 167.845 113.922 168.036C113.442 168.308 113.056 168.036 113.056 167.373C113.061 167.048 113.141 166.729 113.292 166.442C113.442 166.154 113.658 165.906 113.922 165.717C114.396 165.439 114.794 165.729 114.794 166.374Z" fill="white"/>
<path d="M114.484 166.551C114.48 166.761 114.427 166.968 114.33 167.154C114.232 167.341 114.092 167.502 113.922 167.625C113.612 167.802 113.359 167.625 113.359 167.196C113.363 166.986 113.416 166.78 113.514 166.595C113.611 166.409 113.751 166.249 113.922 166.128C114.232 165.951 114.484 166.134 114.484 166.551Z" fill="#F48284"/>
</svg>
