<svg width="375" height="300" viewBox="0 0 375 300" fill="none" xmlns="http://www.w3.org/2000/svg">
<path fill-rule="evenodd" clip-rule="evenodd" d="M198.574 44.2048C217.569 50.985 235.626 65.5007 249.849 79.0342C279.467 107.217 283.888 113.142 320.426 136.804C341.721 150.594 358.511 162.257 366.783 177.856C390.02 221.673 362.342 268.999 304.343 268.999H68.5749C68.5749 268.999 40.8417 269.6 20.6029 246.181C-47.9898 166.804 65.7783 -3.1941 198.574 44.2048Z" fill="#F6FCFE"/>
<path d="M323.386 269.64C323.386 269.73 262.024 269.796 186.352 269.796C110.68 269.796 49.3 269.73 49.3 269.64C49.3 269.55 110.65 269.484 186.352 269.484C262.054 269.484 323.386 269.556 323.386 269.64Z" fill="#263238"/>
<path d="M148.294 47.136C148.25 46.9892 148.176 46.8526 148.079 46.7342C147.981 46.6158 147.862 46.5178 147.726 46.4458C147.591 46.3739 147.442 46.3295 147.289 46.3151C147.137 46.3007 146.983 46.3166 146.836 46.362L141.58 48L69.4961 67.122L95.1641 167.16L104.098 171.858L177.466 151.458C177.75 151.379 178.015 151.245 178.245 151.063C178.476 150.88 178.668 150.653 178.81 150.396C178.952 150.138 179.041 149.855 179.072 149.562C179.103 149.269 179.075 148.974 178.99 148.692L148.294 47.136Z" fill="#F48284"/>
<path d="M140.14 43.17L147.322 47.382L178.072 149.838L103.978 170.994L95.5601 166.422L140.14 43.17Z" fill="#F5F5F5"/>
<path d="M167.998 145.578L95.164 167.178L65.716 67.8C65.5317 67.1723 65.6005 66.4973 65.9078 65.9197C66.2151 65.3421 66.7364 64.9078 67.36 64.71L139.414 42.09C139.59 42.0349 139.776 42.0156 139.96 42.0333C140.144 42.051 140.323 42.1053 140.486 42.1931C140.648 42.2809 140.792 42.4003 140.908 42.5444C141.023 42.6885 141.109 42.8543 141.16 43.032L169.63 142.632C169.799 143.239 169.723 143.888 169.418 144.439C169.112 144.99 168.602 145.399 167.998 145.578Z" fill="#F48284"/>
<path d="M104.482 162.954C104.404 162.954 97.624 140.754 89.35 113.262C81.076 85.77 74.428 63.498 74.512 63.462C74.596 63.426 81.37 85.662 89.65 113.16C97.93 140.658 104.566 162.93 104.482 162.954Z" fill="#263238"/>
<path d="M101.914 165.522C101.83 165.552 95.056 143.322 86.782 115.83C78.508 88.338 71.86 66.072 71.944 66.03C72.028 65.988 78.802 88.23 87.076 115.728C95.35 143.226 101.998 165.498 101.914 165.522Z" fill="#263238"/>
<path d="M115.882 106.452L110.02 108.3L109.828 110.994L106.186 112.146L107.74 96.744L111.376 95.598L121.342 107.4L117.568 108.6L115.882 106.452ZM113.98 104.052L110.602 99.804L110.23 105.204L113.98 104.052Z" fill="white"/>
<path d="M125.2 98.4L125.896 100.602L120.766 102.222L120.07 100.014L125.2 98.4Z" fill="white"/>
<path d="M136.642 87.636L137.374 89.958L132.862 100.608L140.14 98.316L141.034 101.16L129.034 104.946L128.308 102.648L132.814 91.974L125.908 94.152L125.014 91.302L136.642 87.636Z" fill="white"/>
<path d="M171.808 148.2L171.64 148.266L171.13 148.44L169.174 149.04L161.974 151.296L138.136 158.616L114.268 165.852L107.014 168L105.04 168.6L104.524 168.744C104.466 168.764 104.405 168.776 104.344 168.78C104.397 168.751 104.454 168.729 104.512 168.714L105.022 168.54L106.978 167.94L114.178 165.684L138.022 158.358L161.884 151.128L169.126 148.968L171.1 148.368L171.616 148.23C171.678 148.211 171.743 148.201 171.808 148.2Z" fill="#263238"/>
<path d="M130.966 158.826L119.92 162.216C122.517 166.974 124.363 172.104 125.392 177.426C126.963 175.004 127.822 172.189 127.87 169.302C129.737 171.54 131.773 173.632 133.96 175.56C134.113 169.836 133.094 164.142 130.966 158.826Z" fill="#455A64"/>
<path d="M170.458 146.832C170.458 146.832 170.404 146.862 170.29 146.904L169.786 147.072L167.83 147.672L160.63 149.922L136.792 157.248L112.93 164.484L105.688 166.644L103.714 167.214L103.198 167.352L103.018 167.394C103.071 167.363 103.127 167.339 103.186 167.322L103.69 167.154L105.652 166.524L112.852 164.274L136.69 156.948L160.558 149.712L167.8 147.6L169.774 147.03L170.29 146.892L170.458 146.832Z" fill="#263238"/>
<path d="M172.696 144C172.659 143.919 172.629 143.834 172.606 143.748L172.384 143.004L171.562 140.148C170.854 137.652 169.834 134.064 168.562 129.636C166.042 120.756 162.532 108.492 158.578 94.974C154.624 81.456 151 69.246 148.312 60.408C146.986 55.998 145.912 52.428 145.156 49.938C144.796 48.738 144.508 47.754 144.31 47.088C144.22 46.776 144.148 46.53 144.1 46.35C144.071 46.2659 144.049 46.1796 144.034 46.092C144.071 46.1719 144.103 46.254 144.13 46.338C144.184 46.518 144.268 46.758 144.37 47.07C144.58 47.736 144.886 48.684 145.276 49.902C146.044 52.38 147.154 55.944 148.528 60.342C151.246 69.162 154.936 81.372 158.896 94.896C162.856 108.42 166.324 120.696 168.79 129.582C169.99 134.022 170.998 137.616 171.682 140.124L172.45 142.998C172.528 143.316 172.594 143.562 172.636 143.748C172.678 143.934 172.696 144 172.696 144Z" fill="#263238"/>
<path d="M140.992 65.274C140.992 65.274 140.992 65.202 140.92 65.07L140.722 64.47C140.546 63.926 140.294 63.146 139.966 62.13C139.318 60.09 138.376 57.12 137.182 53.37L137.296 53.43L82.5401 70.566L82.6421 70.368C83.9201 74.46 85.1681 78.462 86.3621 82.308L86.1701 82.206L125.2 70.104L136.75 66.552L139.876 65.598L140.692 65.352L140.974 65.274L140.716 65.37L139.924 65.622L136.864 66.6L125.368 70.2L86.2601 82.506L86.1101 82.548L86.0621 82.404C84.8621 78.558 83.6141 74.556 82.3421 70.47L82.2941 70.32L82.4441 70.272L137.242 53.256L137.326 53.226V53.31C138.484 57.096 139.396 60.09 140.032 62.154C140.332 63.162 140.572 63.954 140.734 64.482C140.812 64.74 140.866 64.932 140.908 65.082C140.942 65.1433 140.97 65.2076 140.992 65.274Z" fill="white"/>
<path d="M188.314 85.908C184.804 83.226 184.39 77.676 186.748 73.944C189.106 70.212 193.588 68.214 197.992 67.896C201.191 67.6938 204.393 68.251 207.335 69.5221C210.278 70.7933 212.878 72.7423 214.924 75.21C217.102 77.892 218.758 81.282 221.908 82.698C224.674 83.946 227.908 83.298 230.878 83.976C234.856 84.852 238.048 88.014 239.806 91.686C241.564 95.358 242.05 99.486 242.17 103.572C242.278 107.31 242.212 111.372 244.54 114.312C246.868 117.252 250.702 118.068 253.648 120.21C259.186 124.248 260.314 133.134 255.958 138.42C254.572 140.112 252.658 141.6 252.322 143.76C252.016 145.728 253.144 147.612 253.576 149.556C254.692 154.572 250.192 160.014 245.056 159.858C242.464 159.774 239.788 158.526 237.376 159.474C234.964 160.422 233.884 163.11 232.228 165.084C230.547 166.991 228.261 168.262 225.754 168.684C223.247 169.105 220.671 168.652 218.458 167.4C216.658 166.302 214.99 164.61 212.866 164.568C210.742 164.526 208.936 166.17 206.83 166.368C204.076 166.65 201.682 164.43 200.266 162.048C198.85 159.666 197.962 156.924 196.066 154.908C193.582 152.268 189.838 151.344 186.526 149.862C182.856 148.225 179.58 145.819 176.921 142.807C174.261 139.794 172.28 136.246 171.111 132.401C169.942 128.556 169.612 124.505 170.144 120.522C170.677 116.539 172.058 112.717 174.196 109.314" fill="#263238"/>
<path d="M223.318 137.928C224.229 137.108 225.324 136.52 226.51 136.212L226.282 136.182C226.498 136.146 226.717 136.128 226.936 136.128C227.337 136.048 227.751 136.051 228.151 136.136C228.552 136.222 228.93 136.389 229.264 136.626C230.536 137.216 231.542 138.26 232.084 139.554C232.493 140.694 232.581 141.924 232.337 143.111C232.094 144.297 231.529 145.393 230.704 146.28C229.294 147.834 227.014 148.728 225.028 148.08C223.228 147.48 221.968 145.65 221.602 143.754C221.374 142.717 221.412 141.639 221.712 140.621C222.012 139.602 222.565 138.676 223.318 137.928Z" fill="#455A64"/>
<path d="M229.108 112.65C229.072 102.096 222.88 88.788 212.338 89.25L179.146 95.568C177.601 95.6376 176.139 96.2849 175.049 97.3817C173.958 98.4785 173.32 99.9448 173.26 101.49L168.682 190.464L206.248 190.266C206.704 183.9 208.384 165.978 208.384 166.038C208.384 166.098 223.006 164.646 226.828 147.294C228.736 138.678 229.144 124.368 229.108 112.65Z" fill="#FFBF9D"/>
<path d="M221.23 127.014C221.202 127.6 220.946 128.151 220.516 128.55C220.087 128.95 219.518 129.165 218.932 129.15C218.645 129.156 218.359 129.105 218.092 128.999C217.825 128.894 217.582 128.735 217.378 128.534C217.173 128.333 217.011 128.092 216.9 127.827C216.79 127.562 216.734 127.277 216.736 126.99C216.764 126.404 217.02 125.852 217.449 125.452C217.879 125.051 218.447 124.835 219.034 124.848C219.321 124.842 219.607 124.894 219.874 125.001C220.141 125.107 220.384 125.266 220.589 125.468C220.793 125.67 220.955 125.911 221.066 126.176C221.176 126.442 221.232 126.727 221.23 127.014Z" fill="#263238"/>
<path d="M225.586 118.704C225.292 118.98 223.666 117.618 221.242 117.504C218.818 117.39 216.982 118.47 216.736 118.158C216.616 118.02 216.934 117.51 217.738 116.994C218.818 116.336 220.075 116.026 221.338 116.106C222.603 116.161 223.817 116.621 224.8 117.42C225.514 118.038 225.73 118.584 225.586 118.704Z" fill="#263238"/>
<path d="M199.48 125.52C199.452 126.106 199.196 126.657 198.766 127.056C198.337 127.456 197.768 127.671 197.182 127.656C196.894 127.662 196.608 127.611 196.341 127.505C196.074 127.399 195.83 127.24 195.626 127.038C195.421 126.836 195.259 126.595 195.149 126.329C195.039 126.063 194.984 125.778 194.986 125.49C195.016 124.905 195.272 124.354 195.701 123.955C196.13 123.557 196.698 123.341 197.284 123.354C197.571 123.348 197.857 123.4 198.124 123.507C198.391 123.613 198.634 123.772 198.839 123.974C199.043 124.176 199.206 124.417 199.316 124.682C199.426 124.948 199.482 125.233 199.48 125.52Z" fill="#263238"/>
<path d="M201.796 117.738C201.496 118.014 199.87 116.652 197.452 116.538C195.034 116.424 193.192 117.504 192.946 117.192C192.826 117.054 193.138 116.544 193.948 116.028C195.028 115.368 196.285 115.058 197.548 115.14C198.807 115.209 200.011 115.678 200.986 116.478C201.718 117.072 201.94 117.6 201.796 117.738Z" fill="#263238"/>
<path d="M209.5 136.2C209.5 136.062 211.012 135.888 213.466 135.726C214.066 135.726 214.666 135.606 214.81 135.192C214.954 134.778 214.762 134.076 214.51 133.338L212.962 128.538C210.826 121.692 209.32 116.076 209.596 115.992C209.872 115.908 211.828 121.392 213.964 128.232C214.474 129.924 214.966 131.532 215.428 133.068C215.62 133.782 215.974 134.604 215.608 135.51C215.506 135.722 215.356 135.908 215.171 136.053C214.986 136.199 214.77 136.3 214.54 136.35C214.191 136.425 213.834 136.453 213.478 136.434C211 136.41 209.5 136.332 209.5 136.2Z" fill="#263238"/>
<path d="M208.534 165.822C208.534 165.822 197.734 165.918 186.502 158.202C186.502 158.202 190.414 171.648 208.048 171.054L208.534 165.822Z" fill="#FF9A6C"/>
<path d="M208.798 141.918C208.301 141.088 207.61 140.392 206.785 139.889C205.959 139.387 205.023 139.092 204.058 139.032C203.426 139 202.796 139.124 202.223 139.391C201.65 139.659 201.151 140.063 200.77 140.568C200.384 141.141 200.164 141.809 200.133 142.5C200.102 143.19 200.262 143.875 200.596 144.48C200.997 145.108 201.578 145.601 202.262 145.894C202.947 146.187 203.705 146.268 204.436 146.124C205.822 145.878 207.004 145.008 208.126 144.138C208.458 143.914 208.738 143.621 208.948 143.28C209.054 143.091 209.11 142.879 209.11 142.662C209.11 142.446 209.054 142.233 208.948 142.044" fill="#FF9A6C"/>
<path d="M202.282 137.442C202.678 137.442 202.528 140.064 204.682 142.062C206.836 144.06 209.626 143.934 209.626 144.306C209.626 144.474 208.972 144.78 207.79 144.738C206.251 144.665 204.787 144.056 203.65 143.016C202.572 142.01 201.927 140.624 201.85 139.152C201.772 138.048 202.108 137.4 202.282 137.442Z" fill="#263238"/>
<path d="M203.458 107.85C203.176 108.492 200.782 108.036 197.926 108.21C195.07 108.384 192.73 109.02 192.388 108.408C192.238 108.114 192.67 107.52 193.636 106.938C194.916 106.229 196.341 105.823 197.802 105.749C199.263 105.675 200.721 105.936 202.066 106.512C203.086 106.992 203.578 107.544 203.458 107.85Z" fill="#263238"/>
<path d="M225.232 110.334C224.776 110.856 223.144 110.19 221.14 110.04C219.136 109.89 217.42 110.19 217.066 109.59C216.91 109.302 217.21 108.768 217.978 108.294C219.013 107.728 220.194 107.482 221.369 107.589C222.545 107.696 223.662 108.15 224.578 108.894C225.238 109.494 225.436 110.076 225.232 110.334Z" fill="#263238"/>
<path d="M241.234 108.822C240.634 106.134 239.374 103.506 237.208 101.802C236.008 100.872 234.604 100.242 233.518 99.198C231.172 96.936 230.896 93.336 229.588 90.354C228.725 88.4336 227.416 86.7466 225.77 85.4329C224.125 84.1192 222.19 83.2166 220.126 82.8C216.694 82.14 213.034 82.866 209.734 81.72C207.292 80.868 205.252 79.056 202.768 78.354C197.926 76.986 193.042 80.112 189.16 83.316C188.836 86.838 191.44 89.442 193.96 91.944C195.224 93.1882 196.743 94.1436 198.411 94.7443C200.08 95.3451 201.859 95.577 203.626 95.424C206.356 95.172 209.422 94.074 211.624 95.712C213.94 97.434 213.718 101.112 215.722 103.212C218.59 106.176 223.744 104.082 227.584 105.612C230.542 106.782 232.186 109.86 233.992 112.482C235.798 115.104 238.624 117.702 241.744 117.066C241.774 114.294 241.816 111.516 241.234 108.822Z" fill="#263238"/>
<path d="M205.6 90.672C203.452 89.844 199.06 88.02 198.046 85.998C195.844 81.612 191.56 78.378 186.904 78.198C184.491 78.1745 182.135 78.9326 180.188 80.3591C178.241 81.7856 176.809 83.8038 176.104 86.112C170.5 85.662 164.704 88.698 161.566 93.756C161.169 94.3913 160.817 95.0528 160.51 95.736C159.501 97.2053 158.825 98.8772 158.53 100.635C158.234 102.393 158.327 104.194 158.8 105.912C159.4 107.97 160.492 110.304 159.304 112.086C158.116 113.868 155.446 113.724 153.304 114.252C151.469 114.764 149.873 115.904 148.794 117.474C147.715 119.043 147.222 120.942 147.4 122.838C147.568 124.188 148.084 125.568 147.688 126.87C147.292 128.172 146.014 129.102 145.006 130.098C143.756 131.35 142.856 132.908 142.396 134.617C141.936 136.326 141.932 138.125 142.385 139.836C142.838 141.546 143.732 143.108 144.977 144.365C146.223 145.622 147.776 146.531 149.482 147C151.03 147.42 152.734 147.504 154.024 148.464C155.494 149.556 156.01 151.494 156.982 153.054C157.945 154.537 159.335 155.691 160.969 156.365C162.604 157.039 164.404 157.201 166.132 156.828C166.823 156.657 167.487 156.393 168.106 156.042C169.03 157.596 170.59 158.73 173.416 158.976L176.014 122.07C176.177 122.539 176.452 122.962 176.814 123.302C177.177 123.642 177.617 123.888 178.096 124.02C183.892 125.874 185.83 113.766 184.798 110.346C187.108 108.636 189.442 106.902 191.284 104.628C193.126 102.354 195.148 95.904 195.064 92.91C197.2 93.234 206.53 91.032 205.6 90.672Z" fill="#263238"/>
<path d="M177.4 125.22C177.538 121.458 173.026 120.252 169.6 121.842C167.722 122.712 166.18 124.668 166 128.658C165.502 139.296 176.284 137.604 176.32 137.298C176.332 137.112 177.214 129.6 177.4 125.22Z" fill="#FFBF9D"/>
<path d="M173.254 133.116C173.206 133.08 173.062 133.236 172.738 133.362C172.289 133.53 171.792 133.517 171.352 133.326C170.248 132.864 169.384 131.034 169.42 129.126C169.44 128.213 169.661 127.316 170.068 126.498C170.182 126.17 170.375 125.874 170.629 125.637C170.883 125.4 171.191 125.228 171.526 125.136C171.742 125.092 171.966 125.123 172.162 125.224C172.358 125.326 172.512 125.492 172.6 125.694C172.726 126 172.648 126.21 172.702 126.234C172.756 126.258 172.942 126.066 172.876 125.634C172.828 125.366 172.69 125.123 172.486 124.944C172.204 124.711 171.842 124.597 171.478 124.626C171.036 124.691 170.619 124.868 170.265 125.142C169.912 125.415 169.636 125.775 169.462 126.186C168.966 127.085 168.698 128.093 168.682 129.12C168.646 131.268 169.654 133.32 171.172 133.842C171.453 133.939 171.752 133.972 172.047 133.938C172.342 133.903 172.625 133.803 172.876 133.644C173.2 133.368 173.29 133.134 173.254 133.116Z" fill="#FF9A6C"/>
<path d="M191.236 86.52C191.302 86.64 190.138 86.73 188.962 88.104C187.786 89.478 187.162 92.19 187.534 95.37L187.57 95.64L187.306 95.682C185.746 95.9558 184.271 96.5854 182.994 97.5219C181.717 98.4585 180.674 99.6767 179.944 101.082C179.544 101.878 179.28 102.736 179.164 103.62C179.106 104.565 179.134 105.513 179.248 106.452C179.371 107.465 179.417 108.486 179.386 109.506C179.365 110.62 178.972 111.695 178.27 112.56C176.776 114.45 174.568 115.248 172.66 116.046C170.783 116.685 169.024 117.627 167.452 118.836C164.848 120.979 163.154 124.031 162.712 127.374C162.436 129.633 162.716 131.926 163.528 134.052C164.128 135.558 164.638 136.302 164.572 136.344C164.413 136.189 164.276 136.014 164.164 135.822C163.815 135.295 163.512 134.739 163.258 134.16C162.312 132.01 161.942 129.651 162.184 127.314C162.565 123.808 164.284 120.583 166.984 118.314C168.605 117.035 170.43 116.041 172.384 115.374C174.292 114.576 176.374 113.772 177.676 112.104C178.996 110.598 178.654 108.45 178.516 106.524C178.4 105.528 178.376 104.524 178.444 103.524C178.579 102.558 178.873 101.621 179.314 100.752C180.099 99.2575 181.223 97.9676 182.596 96.9861C183.97 96.0045 185.554 95.3586 187.222 95.1L186.988 95.412C186.646 92.088 187.396 89.262 188.728 87.864C189.222 87.3242 189.84 86.9124 190.528 86.664C190.757 86.5868 190.995 86.5384 191.236 86.52Z" fill="#455A64"/>
<path d="M168.94 136.734C169.851 135.914 170.946 135.326 172.132 135.018L171.898 134.982C172.117 134.952 172.337 134.934 172.558 134.928C172.96 134.849 173.374 134.852 173.774 134.939C174.175 135.026 174.553 135.194 174.886 135.432C176.158 136.018 177.162 137.061 177.7 138.354C178.111 139.494 178.2 140.725 177.958 141.913C177.716 143.1 177.151 144.198 176.326 145.086C174.91 146.634 172.636 147.534 170.65 146.886C168.85 146.286 167.59 144.486 167.224 142.56C166.994 141.523 167.03 140.445 167.33 139.426C167.63 138.407 168.184 137.481 168.94 136.734Z" fill="#455A64"/>
<path d="M130.828 184.998C130.828 184.998 85 229.47 85.414 243.828C85.3898 244.066 85.3415 244.301 85.27 244.53C83.602 253.962 90.454 262.8 99.958 264L117.67 266.202L155.506 217.404L145.264 190.14L130.828 184.998Z" fill="#F48284"/>
<path d="M115 206.898C115 206.898 122.392 194.394 130.834 184.998C138.826 176.112 149.464 173.598 151.834 173.466C160.594 173.052 197.53 175.548 221.224 176.466C230.026 176.82 238.72 181.932 244.474 188.604C257.356 203.544 279.946 230.172 284.482 238.374C290.914 249.99 286.402 276.438 281.89 279.966C277.378 283.494 138.934 277.488 138.934 277.488L115 206.898Z" fill="#F48284"/>
<path d="M270.676 238.404C270.58 238.417 270.484 238.417 270.388 238.404L269.56 238.374L268.96 238.344C268.744 238.344 268.504 238.344 268.252 238.344C267.677 238.344 267.102 238.374 266.53 238.434L265.534 238.536C265.186 238.572 264.832 238.656 264.46 238.716C263.716 238.824 262.948 239.046 262.126 239.25C258.592 240.26 255.333 242.057 252.592 244.506C251.998 245.039 251.431 245.602 250.894 246.192C250.648 246.474 250.39 246.732 250.168 247.002C249.946 247.272 249.748 247.542 249.568 247.794C249.214 248.244 248.883 248.713 248.578 249.198C248.434 249.414 248.296 249.606 248.182 249.798L247.894 250.314C247.726 250.596 247.594 250.836 247.48 251.028C247.366 251.22 247.324 251.274 247.312 251.268C247.338 251.174 247.375 251.084 247.42 250.998C247.522 250.8 247.642 250.554 247.786 250.254L248.056 249.72C248.164 249.528 248.296 249.33 248.428 249.12C248.723 248.62 249.045 248.138 249.394 247.674C249.586 247.41 249.79 247.14 249.994 246.864C250.198 246.588 250.468 246.318 250.714 246.03C251.251 245.426 251.817 244.849 252.412 244.302C255.169 241.802 258.473 239.981 262.06 238.986C262.851 238.772 263.652 238.6 264.46 238.47C264.832 238.416 265.192 238.338 265.546 238.308L266.554 238.224C267.133 238.178 267.714 238.164 268.294 238.182C268.552 238.182 268.786 238.182 269.008 238.182L269.608 238.236L270.436 238.326C270.519 238.341 270.6 238.367 270.676 238.404Z" fill="#263238"/>
<path d="M148.342 236.52C148.29 236.387 148.254 236.248 148.234 236.106L147.976 234.906C147.742 233.862 147.376 232.356 146.83 230.514C145.382 225.734 143.677 221.035 141.724 216.438C139.468 211.038 137.152 206.238 135.346 202.884C134.902 202.032 134.482 201.27 134.104 200.61C133.726 199.95 133.414 199.368 133.138 198.912L132.538 197.844C132.459 197.723 132.392 197.595 132.34 197.46C132.435 197.57 132.519 197.688 132.592 197.814L133.264 198.852C133.558 199.296 133.864 199.866 134.278 200.52C134.692 201.174 135.106 201.93 135.562 202.776C137.946 207.169 140.095 211.685 142 216.306C143.961 220.912 145.642 225.633 147.034 230.442C147.544 232.296 147.886 233.814 148.084 234.87C148.168 235.38 148.234 235.782 148.282 236.07C148.318 236.217 148.338 236.368 148.342 236.52Z" fill="#263238"/>
<path d="M239.8 197.826C239.805 197.876 239.805 197.926 239.8 197.976V198.414C239.8 198.828 239.8 199.392 239.8 200.106C239.8 201.582 239.71 203.706 239.596 206.334C239.38 211.59 238.924 218.844 238.12 226.836C237.316 234.828 236.32 242.022 235.474 247.236C235.06 249.834 234.7 251.928 234.43 253.374C234.298 254.082 234.19 254.634 234.112 255.042L234.022 255.474C234.018 255.524 234.003 255.573 233.98 255.618C233.977 255.568 233.977 255.518 233.98 255.468C233.98 255.348 234.016 255.204 234.04 255.03C234.1 254.622 234.19 254.064 234.298 253.356C234.526 251.874 234.85 249.756 235.246 247.2C236.02 242.004 236.992 234.804 237.796 226.8C238.6 218.796 239.086 211.572 239.368 206.322C239.494 203.718 239.596 201.6 239.668 200.106C239.704 199.392 239.728 198.822 239.746 198.414C239.746 198.234 239.746 198.09 239.776 197.976C239.778 197.925 239.786 197.875 239.8 197.826Z" fill="#263238"/>
<path d="M214.276 172.098C213.76 171.801 213.179 171.636 212.584 171.618L171.4 167.106C169.996 166.95 168.4 166.848 167.332 167.772C165.97 168.942 166.186 171.108 166.798 172.8C167.41 174.492 168.328 176.208 167.998 177.972L212.2 180.744C211.924 179.148 213.19 177.744 214.126 176.448C215.062 175.152 215.596 173.028 214.276 172.098Z" fill="#F48284"/>
<path d="M216.244 179.892C216.088 179.95 215.928 179.994 215.764 180.024L214.36 180.33C213.76 180.462 212.998 180.618 212.122 180.756C211.246 180.894 210.256 181.086 209.122 181.206L207.388 181.428C206.788 181.5 206.146 181.542 205.492 181.602C204.19 181.74 202.786 181.788 201.292 181.86C198.09 181.956 194.886 181.88 191.692 181.632C188.5 181.352 185.325 180.897 182.182 180.27C180.742 179.958 179.368 179.67 178.102 179.322C177.466 179.154 176.848 179.01 176.266 178.836L174.586 178.338C173.512 178.032 172.564 177.678 171.724 177.396C170.884 177.114 170.17 176.838 169.594 176.604L168.262 176.07C168.105 176.013 167.953 175.945 167.806 175.866C167.97 175.901 168.13 175.95 168.286 176.01L169.636 176.49C170.236 176.706 170.938 176.964 171.784 177.228C172.63 177.492 173.584 177.828 174.652 178.122L176.326 178.608C176.926 178.77 177.526 178.908 178.162 179.076C179.428 179.412 180.802 179.676 182.242 179.988C188.508 181.234 194.895 181.766 201.28 181.572C202.75 181.512 204.148 181.47 205.45 181.344C206.104 181.29 206.734 181.254 207.334 181.188L209.074 180.99C210.178 180.882 211.174 180.708 212.074 180.582C212.974 180.456 213.7 180.324 214.312 180.21L215.722 179.958C215.894 179.92 216.068 179.898 216.244 179.892Z" fill="#263238"/>
<g opacity="0.3">
<path d="M115.558 223.548C111.613 224.242 107.936 226.009 104.929 228.655C101.922 231.301 99.702 234.724 98.512 238.548C100.57 237.87 102.532 236.1 104.032 234.528C107.938 230.43 112.756 227.688 118.384 227.088C122.26 226.668 125.968 227.688 129.592 229.11C131.23 229.758 133.06 230.118 134.524 231.108L136.462 231.552C131.908 225 123.436 222.276 115.558 223.548Z" fill="black"/>
</g>
<g opacity="0.3">
<path d="M170.908 177C176.758 182.304 184.42 186.072 192.298 186.642C200.176 187.212 207.724 184.692 214.276 180.276C198.274 182.784 183.712 181.932 170.908 177Z" fill="black"/>
</g>
<g opacity="0.3">
<path d="M271.414 233.844C270.124 233.028 268.486 233.046 266.968 233.244C257.452 234.372 248.242 240.852 247.3 251.304C251.308 243.552 259.552 237.87 268.246 238.62C269.71 238.746 271.45 238.92 272.386 237.786C273.322 236.652 272.698 234.666 271.414 233.844Z" fill="black"/>
</g>
<path d="M89.056 283.8L167.092 283.404C167.092 283.404 166.576 284.91 169.81 284.91L195.61 284.73C195.61 284.73 197.518 284.91 197.548 283.404C197.548 283.404 258.046 284.424 272.992 284.844C274.108 284.874 276.088 284.196 275.158 282.774L269.944 276.528L183.628 268.128L122.428 274.56L101.428 266.976H100.732C100.449 266.975 100.17 267.042 99.9182 267.171C99.6665 267.301 99.4497 267.489 99.286 267.72L88.486 282.72C88.415 282.824 88.3736 282.945 88.3664 283.07C88.3591 283.196 88.3863 283.321 88.445 283.432C88.5037 283.543 88.5916 283.636 88.6993 283.701C88.807 283.766 88.9303 283.8 89.056 283.8Z" fill="#455A64"/>
<path opacity="0.2" d="M122.05 281.994L261.07 283.068L228.376 272.94L187.618 274.086L146.836 272.46L122.05 281.994Z" fill="black"/>
<path d="M182.854 279.246L183.628 262.14C183.628 262.14 183.784 252.732 172.45 249.594C161.116 246.456 146.992 250.452 133.798 251.166C120.604 251.88 120.76 250.878 120.76 250.878L110.05 267.414L152.116 273.546C152.116 273.546 176.488 274.968 176.95 275.112C177.412 275.256 182.854 279.246 182.854 279.246Z" fill="white"/>
<path d="M182.716 279.852L183.628 263.778C183.628 263.778 183.472 254.4 194.8 251.238C206.128 248.076 220.252 252.09 233.446 252.804C242.68 253.302 245.542 253.218 246.43 253.122C246.554 253.109 246.679 253.129 246.792 253.181C246.905 253.232 247.001 253.314 247.072 253.416L257.2 269.052L215.14 275.184C215.14 275.184 190.768 276.612 190.3 276.75C189.832 276.888 182.716 279.852 182.716 279.852Z" fill="white"/>
<path d="M91.7321 282.528L110.05 267.414C110.05 267.414 148 261 160.87 263.28C173.74 265.56 181.084 269.982 182.854 279.39L170.494 282.528C165.388 279.938 159.766 278.528 154.042 278.4C144.73 278.256 121.444 282.534 121.444 282.534L91.7321 282.528Z" fill="#E0E0E0"/>
<path d="M195.964 282.528L182.92 279.246C182.92 279.246 183.85 264.3 205.036 261.804C205.036 261.804 211.036 259.86 232.282 263.85C253.528 267.84 255.724 267.702 255.724 267.702L273.4 283.38C273.4 283.38 262.846 284.238 254.152 282.528C245.458 280.818 230.248 274.968 213.796 276.684C197.344 278.4 195.964 282.528 195.964 282.528Z" fill="#E0E0E0"/>
<path d="M110.05 267.414L120.418 251.412L102.028 266.088L90.412 282.528H91.732L110.05 267.414Z" fill="#E0E0E0"/>
<path d="M255.652 267.702L247.204 253.506C247.204 253.506 264.034 268.134 264.178 268.548C264.322 268.962 273.346 283.38 273.346 283.38L255.652 267.702Z" fill="#E0E0E0"/>
<path d="M169.81 282.528H195.892L182.854 279.246L182.17 279.39" fill="#263238"/>
<path d="M182.854 279.246C182.764 279.246 182.854 275.508 183.046 270.912C183.238 266.316 183.472 262.584 183.556 262.59C183.64 262.596 183.556 266.322 183.358 270.924C183.16 275.526 182.938 279.252 182.854 279.246Z" fill="#263238"/>
<path d="M128.326 264.774C128.211 264.813 128.093 264.84 127.972 264.852L126.934 265.032L123.082 265.632L110.074 267.6L110.146 267.57L107.644 269.496L95.5 278.754L91.798 281.538L90.778 282.282C90.6625 282.373 90.5401 282.456 90.412 282.528C90.5103 282.418 90.621 282.319 90.742 282.234L91.72 281.442L95.362 278.574L107.452 269.214L109.954 267.294H109.99H110.026L123.058 265.464L126.916 264.948L127.96 264.828C128.08 264.797 128.202 264.779 128.326 264.774Z" fill="#263238"/>
<path d="M181.138 270.27C181.138 270.27 181.096 270.234 181.024 270.15L180.706 269.766C180.43 269.436 180.01 268.95 179.428 268.368C177.776 266.729 175.882 265.352 173.812 264.288C170.735 262.723 167.427 261.664 164.014 261.15C159.828 260.541 155.601 260.26 151.372 260.31C143.682 260.283 136.002 260.864 128.404 262.05C125.488 262.506 123.142 262.956 121.522 263.28L119.656 263.658L119.17 263.754C119.114 263.762 119.058 263.762 119.002 263.754L119.164 263.7L119.644 263.58C120.064 263.478 120.688 263.322 121.498 263.142C123.106 262.782 125.452 262.296 128.368 261.816C135.971 260.562 143.666 259.948 151.372 259.98C155.618 259.928 159.862 260.219 164.062 260.85C167.5 261.38 170.829 262.47 173.914 264.078C175.996 265.168 177.888 266.586 179.518 268.278C179.958 268.735 180.371 269.218 180.754 269.724L181.048 270.126C181.085 270.169 181.115 270.218 181.138 270.27Z" fill="#263238"/>
<path d="M181.138 268.2C181.138 268.2 181.096 268.164 181.03 268.086L180.736 267.738C180.61 267.576 180.448 267.39 180.25 267.174C180.052 266.958 179.83 266.7 179.56 266.43C178.041 264.9 176.312 263.595 174.424 262.554C171.61 261.021 168.573 259.938 165.424 259.344C161.568 258.639 157.656 258.28 153.736 258.27C146.61 258.125 139.483 258.5 132.412 259.392C129.694 259.74 127.51 260.082 125.998 260.334L124.264 260.622L123.808 260.694H123.652L123.802 260.652L124.252 260.55C124.642 260.466 125.224 260.34 125.98 260.202C127.48 259.914 129.67 259.536 132.382 259.164C139.46 258.206 146.602 257.805 153.742 257.964C157.679 257.975 161.608 258.344 165.478 259.068C168.646 259.681 171.697 260.795 174.514 262.368C176.41 263.429 178.134 264.773 179.626 266.352C179.89 266.634 180.118 266.886 180.304 267.12C180.49 267.354 180.652 267.54 180.766 267.72L181.036 268.092C181.074 268.124 181.109 268.16 181.138 268.2Z" fill="#263238"/>
<path d="M181.138 266.094C181.138 266.094 181.096 266.064 181.03 265.986L180.742 265.638C180.618 265.474 180.456 265.288 180.256 265.08C180.056 264.872 179.828 264.626 179.572 264.342C178.074 262.821 176.364 261.524 174.496 260.49C171.721 258.96 168.722 257.874 165.61 257.274C161.792 256.569 157.919 256.209 154.036 256.2C146.978 256.04 139.917 256.393 132.91 257.256C130.216 257.586 128.05 257.916 126.55 258.162L124.828 258.444L124.378 258.51C124.327 258.521 124.274 258.521 124.222 258.51L124.372 258.468L124.816 258.372C125.212 258.294 125.788 258.168 126.532 258.03C128.02 257.748 130.186 257.382 132.88 257.022C139.896 256.096 146.973 255.713 154.048 255.876C157.947 255.893 161.836 256.273 165.664 257.01C168.801 257.629 171.819 258.745 174.604 260.316C176.478 261.377 178.183 262.711 179.662 264.276C179.926 264.552 180.142 264.804 180.328 265.032C180.514 265.26 180.67 265.452 180.79 265.632L181.054 265.998C181.085 266.027 181.114 266.059 181.138 266.094Z" fill="#263238"/>
<path d="M181.138 264C181.138 264 181.096 263.97 181.03 263.892L180.748 263.55C180.502 263.25 180.148 262.812 179.614 262.278C175.982 258.532 171.326 255.942 166.228 254.832C162.808 254.07 158.938 254.034 154.894 254.088C146.794 254.136 139.468 254.484 134.194 255.042C131.554 255.306 129.394 255.588 127.96 255.81L126.268 256.062L125.824 256.122C125.774 256.131 125.724 256.131 125.674 256.122C125.723 256.106 125.773 256.094 125.824 256.086L126.256 255.99C126.64 255.918 127.204 255.804 127.936 255.684C129.4 255.426 131.536 255.084 134.17 254.814C141.056 254.123 147.973 253.785 154.894 253.8C158.932 253.752 162.838 253.8 166.294 254.58C169.357 255.241 172.272 256.461 174.892 258.18C176.658 259.318 178.271 260.677 179.692 262.224C180.079 262.645 180.443 263.085 180.784 263.544L181.048 263.904C181.081 263.933 181.111 263.966 181.138 264Z" fill="#263238"/>
<path d="M181.138 261.918C181.138 261.918 181.102 261.918 181.036 261.81L180.754 261.468C180.514 261.168 180.154 260.724 179.662 260.172C178.295 258.61 176.739 257.223 175.03 256.044C173.852 255.238 172.591 254.56 171.268 254.022C169.739 253.422 168.153 252.978 166.534 252.696C162.814 252.075 159.04 251.842 155.272 252C147.238 252.24 139.99 253.014 134.734 253.422C132.106 253.632 129.982 253.788 128.506 253.872L126.814 253.956H126.37L126.808 253.914L128.5 253.77L134.716 253.218C139.966 252.756 147.214 251.946 155.266 251.706C159.058 251.54 162.857 251.775 166.6 252.408C168.242 252.702 169.851 253.162 171.4 253.782C172.736 254.335 174.008 255.034 175.192 255.864C176.903 257.066 178.448 258.488 179.788 260.094C180.268 260.658 180.616 261.114 180.838 261.432L181.096 261.792C181.114 261.833 181.128 261.875 181.138 261.918Z" fill="#263238"/>
<path d="M184.906 269.7C184.906 269.7 184.936 269.646 185.002 269.556L185.302 269.166C185.695 268.665 186.118 268.188 186.568 267.738C188.229 266.082 190.145 264.705 192.244 263.658C195.359 262.107 198.707 261.077 202.156 260.61C206.364 260.056 210.61 259.843 214.852 259.974C222.56 260.083 230.244 260.837 237.826 262.23C240.73 262.77 243.064 263.298 244.672 263.688C245.476 263.88 246.094 264.048 246.514 264.156L246.988 264.288C247.044 264.299 247.099 264.317 247.15 264.342C247.094 264.351 247.038 264.351 246.982 264.342L246.496 264.24L244.642 263.826C243.028 263.478 240.694 262.98 237.784 262.476C230.21 261.147 222.541 260.423 214.852 260.31C210.625 260.176 206.394 260.377 202.198 260.91C198.775 261.361 195.447 262.358 192.34 263.862C190.25 264.887 188.332 266.229 186.652 267.84C186.052 268.41 185.632 268.884 185.35 269.214L185.026 269.592L184.906 269.7Z" fill="#263238"/>
<path d="M184.942 267.6L185.032 267.468L185.308 267.102C185.428 266.94 185.59 266.748 185.782 266.502C185.974 266.256 186.202 266.022 186.472 265.752C187.995 264.199 189.745 262.885 191.662 261.858C194.505 260.334 197.574 259.277 200.752 258.726C204.635 258.073 208.569 257.776 212.506 257.838C219.649 257.818 226.783 258.356 233.842 259.446C236.548 259.866 238.726 260.286 240.226 260.604C240.976 260.754 241.552 260.892 241.948 260.982L242.392 261.09C242.444 261.101 242.494 261.117 242.542 261.138C242.49 261.146 242.438 261.146 242.386 261.138L241.936 261.06L240.202 260.742C238.696 260.46 236.518 260.076 233.806 259.68C226.752 258.658 219.633 258.153 212.506 258.168C208.588 258.105 204.673 258.392 200.806 259.026C197.651 259.56 194.6 260.587 191.764 262.068C189.854 263.072 188.1 264.347 186.556 265.854C186.28 266.118 186.046 266.364 185.854 266.58C185.662 266.796 185.482 266.982 185.356 267.138L185.056 267.48L184.942 267.6Z" fill="#263238"/>
<path d="M184.984 265.524C184.984 265.524 184.984 265.476 185.068 265.392L185.344 265.032C185.489 264.824 185.645 264.623 185.812 264.432C186.027 264.171 186.256 263.92 186.496 263.682C188.003 262.144 189.732 260.841 191.626 259.818C194.438 258.295 197.477 257.236 200.626 256.68C204.469 256.011 208.366 255.702 212.266 255.756C219.343 255.723 226.412 256.237 233.41 257.292C236.092 257.7 238.252 258.108 239.734 258.414C240.478 258.564 241.054 258.702 241.444 258.786L241.882 258.894C241.934 258.901 241.985 258.917 242.032 258.942C241.98 258.95 241.928 258.95 241.876 258.942L241.432 258.87L239.71 258.552C238.222 258.282 236.056 257.91 233.374 257.532C226.382 256.54 219.328 256.057 212.266 256.086C208.385 256.034 204.507 256.334 200.68 256.98C197.557 257.523 194.539 258.552 191.734 260.028C189.847 261.03 188.114 262.297 186.586 263.79C186.316 264.048 186.082 264.294 185.89 264.51C185.698 264.726 185.524 264.906 185.398 265.056L185.098 265.404C185.026 265.488 184.99 265.53 184.984 265.524Z" fill="#263238"/>
<path d="M185.02 261.918C185.458 261.295 185.963 260.721 186.526 260.208C188.069 258.81 189.843 257.691 191.77 256.902C193.085 256.338 194.429 255.843 195.796 255.42C197.353 254.894 198.945 254.475 200.56 254.166C203.992 253.524 207.838 253.566 211.822 253.704C219.826 253.956 227.014 254.946 232.222 255.552L238.378 256.296L240.052 256.494L240.484 256.554L240.634 256.584H240.484H240.046L238.366 256.44C236.908 256.308 234.796 256.086 232.198 255.798C226.99 255.24 219.808 254.292 211.828 254.04C207.838 253.914 204.028 253.854 200.626 254.472C199.021 254.767 197.438 255.168 195.886 255.672C194.416 256.128 193.066 256.602 191.866 257.112C189.952 257.878 188.177 258.957 186.616 260.304C186.373 260.516 186.141 260.74 185.92 260.976C185.748 261.138 185.585 261.31 185.434 261.492L185.14 261.822C185.062 261.888 185.026 261.924 185.02 261.918Z" fill="#263238"/>
<path d="M211.084 267.36V277.512L214.45 274.47L217.744 277.356L217.936 267.468C217.936 267.468 212.524 267.18 211.084 267.36Z" fill="#F48284"/>
<path d="M249.142 273.258L248.968 273.228L248.47 273.114L246.568 272.658C244.912 272.262 242.512 271.716 239.53 271.128C236.548 270.54 232.984 269.928 229.012 269.268L222.79 268.242C220.573 267.849 218.332 267.608 216.082 267.522C213.83 267.427 211.574 267.459 209.326 267.618C207.233 267.747 205.156 268.056 203.116 268.542C199.662 269.396 196.422 270.954 193.6 273.12C192.521 273.953 191.495 274.853 190.528 275.814C189.664 276.66 188.962 277.428 188.392 278.058L187.102 279.528L186.766 279.912C186.688 279.996 186.646 280.038 186.64 280.032L186.742 279.888L187.054 279.492C187.33 279.138 187.75 278.628 188.302 277.98C188.854 277.332 189.55 276.552 190.402 275.694C191.36 274.711 192.382 273.793 193.462 272.946C196.297 270.729 199.569 269.134 203.062 268.266C205.116 267.765 207.21 267.446 209.32 267.312C211.58 267.148 213.848 267.114 216.112 267.21C218.374 267.296 220.628 267.541 222.856 267.942L229.078 268.986C233.044 269.652 236.614 270.294 239.59 270.912C242.566 271.53 244.99 272.112 246.616 272.538C247.438 272.748 248.074 272.928 248.506 273.054L248.992 273.198C249.045 273.21 249.095 273.23 249.142 273.258Z" fill="#263238"/>
<path d="M178.396 280.2C178.396 280.2 178.342 280.152 178.246 280.05L177.832 279.594C177.646 279.396 177.43 279.138 177.154 278.856C176.878 278.574 176.554 278.256 176.182 277.896C174.06 275.911 171.661 274.243 169.06 272.946C165.195 271.04 161.044 269.78 156.772 269.214C151.533 268.573 146.233 268.611 141.004 269.328C135.43 270.018 130.204 271.128 125.404 272.112C120.604 273.096 116.326 273.948 112.672 274.476C109.791 274.906 106.889 275.178 103.978 275.292C102.946 275.322 102.142 275.334 101.578 275.322C102.118 275.322 102.916 275.286 103.948 275.238C106.85 275.078 109.741 274.771 112.612 274.32C116.254 273.774 120.556 272.904 125.32 271.92C130.084 270.936 135.34 269.796 140.92 269.106C146.176 268.387 151.503 268.357 156.766 269.016C161.067 269.601 165.241 270.892 169.12 272.838C171.733 274.131 174.141 275.803 176.266 277.8L177.226 278.784C177.496 279.078 177.7 279.342 177.88 279.546L178.276 280.02C178.325 280.074 178.365 280.134 178.396 280.2Z" fill="#263238"/>
<path d="M178.396 282.306C178.396 282.306 178.342 282.258 178.246 282.156L177.832 281.7C177.646 281.502 177.43 281.244 177.154 280.962L176.182 280.002C174.058 278.018 171.66 276.351 169.06 275.052C165.195 273.146 161.044 271.886 156.772 271.32C151.533 270.679 146.233 270.717 141.004 271.434C135.43 272.124 130.204 273.234 125.404 274.218C120.604 275.202 116.326 276.06 112.672 276.582C109.791 277.013 106.889 277.287 103.978 277.404C102.946 277.404 102.142 277.44 101.578 277.404C102.118 277.404 102.916 277.368 103.948 277.32C106.85 277.162 109.741 276.858 112.612 276.408C116.254 275.856 120.556 274.992 125.32 273.978C130.084 272.964 135.34 271.86 140.92 271.164C146.176 270.445 151.503 270.415 156.766 271.074C161.066 271.661 165.24 272.953 169.12 274.896C171.725 276.222 174.119 277.926 176.224 279.954L177.184 280.938C177.454 281.232 177.658 281.496 177.838 281.7L178.234 282.18C178.36 282.246 178.402 282.3 178.396 282.306Z" fill="#263238"/>
<path d="M172.228 280.518C172.111 280.445 172.001 280.363 171.898 280.272C171.682 280.11 171.388 279.84 170.968 279.54C169.816 278.667 168.594 277.89 167.314 277.218C165.415 276.221 163.416 275.428 161.35 274.854C158.819 274.153 156.224 273.709 153.604 273.528C148.83 273.29 144.044 273.529 139.318 274.242L135.01 274.842L133.81 275.004C133.674 275.019 133.538 275.019 133.402 275.004C133.533 274.961 133.667 274.929 133.804 274.908L134.968 274.692C135.976 274.506 137.44 274.254 139.264 273.984C144.002 273.21 148.809 272.941 153.604 273.18C156.244 273.36 158.859 273.817 161.404 274.542C163.487 275.134 165.499 275.953 167.404 276.984C168.675 277.673 169.88 278.476 171.004 279.384C171.412 279.702 171.694 279.984 171.898 280.164C172.024 280.266 172.135 280.385 172.228 280.518Z" fill="#263238"/>
<path d="M149.128 238.056L170.32 233.478C170.32 233.478 178.264 231.876 179.8 232.722C181.336 233.568 190.186 240.648 190.948 241.308C191.71 241.968 200.17 252.108 200.17 252.108C200.17 252.108 199.978 255.318 195.334 254.028C192.934 253.368 182.782 244.488 182.782 244.488L180.4 242.616C180.4 242.616 184.102 248.352 184.03 250.236C183.958 252.12 181.6 255.882 180.79 256.398C179.98 256.914 175.924 256.206 175.924 256.206C175.924 256.206 173.044 259.314 170.782 256.866C170.782 256.866 166.924 260.88 163.792 258.552L162.112 255.258L160.51 254.016C160.51 254.016 160.264 256.284 158.71 256.536C157.156 256.788 139.726 253.032 139.726 253.032L145.726 236.634L149.128 238.056Z" fill="#FFBF9D"/>
<path d="M171.658 243.858C171.835 243.941 171.999 244.05 172.144 244.182C172.444 244.416 172.87 244.782 173.344 245.22C174.656 246.413 175.827 247.752 176.836 249.21C177.115 249.641 177.344 250.102 177.52 250.584C177.714 251.038 177.774 251.537 177.694 252.024C177.583 252.82 177.369 253.599 177.058 254.34C176.865 254.844 176.618 255.325 176.32 255.774C176.217 255.944 176.081 256.091 175.918 256.206C175.918 256.206 176.038 256.032 176.218 255.708C176.473 255.244 176.686 254.758 176.854 254.256C177.127 253.526 177.314 252.767 177.412 251.994C177.433 251.777 177.433 251.558 177.412 251.34C177.371 251.117 177.311 250.898 177.232 250.686C177.056 250.228 176.833 249.79 176.566 249.378C175.571 247.95 174.444 246.618 173.2 245.4C172.264 244.434 171.628 243.894 171.658 243.858Z" fill="#FF9A6C"/>
<path d="M160.72 245.742C160.925 245.636 161.146 245.565 161.374 245.532C161.991 245.398 162.626 245.371 163.252 245.454C165.334 245.76 167.212 246.875 168.478 248.556C169.135 249.494 169.631 250.534 169.948 251.634C170.213 252.518 170.414 253.421 170.548 254.334C170.668 255.108 170.734 255.744 170.77 256.182C170.797 256.409 170.797 256.639 170.77 256.866C170.716 256.866 170.608 255.906 170.314 254.37C170.141 253.474 169.916 252.588 169.642 251.718C169.323 250.647 168.835 249.634 168.196 248.718C167.525 247.839 166.685 247.105 165.724 246.558C164.939 246.106 164.079 245.797 163.186 245.646C162.364 245.555 161.533 245.587 160.72 245.742Z" fill="#FF9A6C"/>
<path d="M173.272 237.63C173.272 237.63 173.392 237.57 173.632 237.516C173.78 237.486 173.931 237.476 174.082 237.486C174.284 237.483 174.486 237.505 174.682 237.552C175.799 237.84 176.829 238.396 177.682 239.172C178.549 239.903 179.327 240.735 179.998 241.65C180.306 242.007 180.553 242.413 180.73 242.85C180.398 242.52 180.087 242.169 179.8 241.8C179.085 240.937 178.301 240.134 177.454 239.4C176.635 238.657 175.668 238.097 174.616 237.756C174.173 237.669 173.723 237.627 173.272 237.63Z" fill="#FF9A6C"/>
<path d="M145.408 234.414L134.8 230.28L115.27 231.282L105.538 244.41L101.632 263.316C101.632 263.316 137.398 255.462 138.532 255.354C139.666 255.246 141.49 253.41 141.49 253.41L145.306 254.208L150.196 237.828L145.408 234.414Z" fill="#F48284"/>
<path d="M151.798 236.952L151.654 236.916L151.246 236.766L149.668 236.166L143.902 233.94L135.364 230.604L130.33 228.618C128.552 227.866 126.723 227.238 124.858 226.74C122.993 226.258 121.057 226.109 119.14 226.302C117.357 226.487 115.608 226.911 113.938 227.562C111.107 228.696 108.459 230.24 106.078 232.146C104.02 233.742 102.478 235.146 101.368 236.136L100.12 237.258L99.79 237.54C99.712 237.606 99.67 237.636 99.67 237.63C99.6969 237.59 99.7292 237.553 99.766 237.522L100.078 237.21L101.278 236.046C102.34 235.05 103.882 233.598 105.928 231.972C108.309 230.026 110.969 228.448 113.818 227.292C115.512 226.625 117.288 226.189 119.098 225.996C121.049 225.8 123.019 225.948 124.918 226.434C126.799 226.936 128.642 227.571 130.432 228.336L135.46 230.34L143.974 233.736L149.704 236.052L151.258 236.7L151.654 236.874L151.798 236.952Z" fill="#263238"/>
<path d="M238.864 265.71C238.438 264.996 238.264 263.982 239.302 262.764L242.158 261.492C242.484 260.607 242.957 259.784 243.556 259.056C244.288 258.39 245.356 257.538 245.356 257.538C245.356 257.538 246.934 255.354 248.452 254.442C249.97 253.53 253.678 252.558 254.956 251.442C256.234 250.326 260.242 246.822 263.038 248.16C265.834 249.498 267.838 254.196 270.022 255.186C272.206 256.176 273.022 259.458 273.85 260.796C274.678 262.134 275.614 263.106 275.734 264.138C275.854 265.17 278.224 267.24 278.65 270.03C279.076 272.82 278.836 273.798 277.558 274.83C276.28 275.862 273.79 277.932 271.3 278.298C269.902 278.502 267.988 278.628 266.578 278.7C266.018 278.729 265.462 278.59 264.981 278.302C264.5 278.013 264.116 277.588 263.878 277.08L263.704 276.714C263.704 276.714 257.326 279.936 254.29 279.51C251.254 279.084 252.49 276.474 252.49 276.474C252.49 276.474 249.388 279.474 247.444 278.904C245.5 278.334 244.444 278.418 244.288 276.714C244.132 275.01 245.56 273.066 245.56 273.066C245.56 273.066 242.644 273.132 242.404 271.188C242.321 269.805 242.591 268.424 243.19 267.174L240.85 266.91C240.449 266.875 240.062 266.748 239.718 266.54C239.373 266.332 239.081 266.048 238.864 265.71Z" fill="#FFBF9D"/>
<path d="M255.19 252.69C255.117 252.929 255.021 253.16 254.902 253.38C254.78 253.647 254.639 253.906 254.482 254.154C254.29 254.491 254.079 254.818 253.852 255.132C253.261 255.954 252.609 256.73 251.902 257.454C251.11 258.27 250.198 259.128 249.226 260.01C248.254 260.892 247.354 261.744 246.562 262.554C245.866 263.269 245.222 264.033 244.636 264.84C243.64 266.232 243.256 267.24 243.19 267.198C243.257 266.958 243.347 266.725 243.46 266.502C243.566 266.227 243.697 265.962 243.85 265.71C244.031 265.367 244.231 265.034 244.45 264.714C245.022 263.878 245.66 263.09 246.358 262.356C247.138 261.528 248.05 260.664 249.016 259.782C249.982 258.9 250.9 258.054 251.698 257.256C252.406 256.549 253.065 255.795 253.672 255C254.698 253.638 255.13 252.654 255.19 252.69Z" fill="#FF9A6C"/>
<path d="M263.104 255.324C263.089 255.409 263.063 255.492 263.026 255.57C262.966 255.732 262.876 255.96 262.744 256.254C262.375 257.078 261.956 257.88 261.49 258.654C259.952 261.243 257.912 263.499 255.49 265.29C254.092 266.358 252.7 267.282 251.458 268.14C250.216 268.998 249.112 269.802 248.236 270.54C247.54 271.103 246.875 271.704 246.244 272.34C246.031 272.594 245.8 272.832 245.554 273.054C245.728 272.77 245.929 272.502 246.154 272.256C246.755 271.574 247.402 270.934 248.092 270.342C248.962 269.592 250.054 268.764 251.29 267.888C252.526 267.012 253.912 266.088 255.298 265.026C256.604 264.045 257.809 262.937 258.898 261.72C259.78 260.718 260.582 259.649 261.298 258.522C261.898 257.556 262.336 256.722 262.63 256.17C262.767 255.877 262.925 255.594 263.104 255.324Z" fill="#FF9A6C"/>
<path d="M264.082 256.08C264.136 256.146 263.68 256.65 263.05 257.202C262.42 257.754 261.85 258.15 261.814 258.084C261.778 258.018 262.216 257.52 262.846 256.968C263.196 256.594 263.616 256.292 264.082 256.08Z" fill="#FF9A6C"/>
<path d="M267.862 263.4C267.811 263.667 267.728 263.927 267.616 264.174C267.344 264.864 266.994 265.52 266.572 266.13C265.14 268.118 263.321 269.798 261.226 271.068C258.826 272.604 256.588 273.864 255.022 274.86C254.236 275.352 253.606 275.766 253.174 276.06C252.958 276.223 252.73 276.367 252.49 276.492C252.67 276.294 252.871 276.117 253.09 275.964C253.504 275.64 254.116 275.202 254.89 274.68C256.432 273.63 258.664 272.34 261.046 270.81C263.108 269.557 264.917 267.929 266.38 266.01C266.944 265.182 267.44 264.309 267.862 263.4Z" fill="#FF9A6C"/>
<path d="M274.072 267.354C274.014 267.534 273.931 267.706 273.826 267.864C273.658 268.182 273.382 268.626 273.022 269.16C272.063 270.546 270.959 271.825 269.728 272.976C269.048 273.604 268.333 274.193 267.586 274.74C266.967 275.18 266.322 275.58 265.654 275.94C265.372 276.096 265.108 276.216 264.874 276.324C264.64 276.432 264.436 276.516 264.274 276.576C264.104 276.659 263.922 276.714 263.734 276.738C263.734 276.69 264.454 276.39 265.534 275.742C266.178 275.364 266.801 274.951 267.4 274.506C268.072 273.996 268.792 273.408 269.506 272.748C270.717 271.604 271.829 270.36 272.83 269.028C273.604 268.008 274 267.33 274.072 267.354Z" fill="#FF9A6C"/>
<path d="M244.666 260.484C243.816 260.952 242.932 261.353 242.02 261.684C241.138 262.095 240.23 262.448 239.302 262.74C239.254 262.644 240.412 262.02 241.9 261.396C243.388 260.772 244.63 260.4 244.666 260.484Z" fill="#FF9A6C"/>
<path d="M246.4 249.342C247.441 249.31 248.483 249.342 249.52 249.438C247.44 249.574 245.354 249.574 243.274 249.438C244.313 249.342 245.357 249.309 246.4 249.342Z" fill="#F48284"/>
</svg>
